<?xml version="1.0" encoding="utf-8" standalone="no"?>
<!DOCTYPE svg PUBLIC "-//W3C//DTD SVG 1.1//EN"
  "http://www.w3.org/Graphics/SVG/1.1/DTD/svg11.dtd">
<svg xmlns:xlink="http://www.w3.org/1999/xlink" width="648pt" height="504pt" viewBox="0 0 648 504" xmlns="http://www.w3.org/2000/svg" version="1.1">
 <metadata>
  <rdf:RDF xmlns:dc="http://purl.org/dc/elements/1.1/" xmlns:cc="http://creativecommons.org/ns#" xmlns:rdf="http://www.w3.org/1999/02/22-rdf-syntax-ns#">
   <cc:Work>
    <dc:type rdf:resource="http://purl.org/dc/dcmitype/StillImage"/>
    <dc:date>2024-03-13T11:39:34.251666</dc:date>
    <dc:format>image/svg+xml</dc:format>
    <dc:creator>
     <cc:Agent>
      <dc:title>Matplotlib v3.8.3, https://matplotlib.org/</dc:title>
     </cc:Agent>
    </dc:creator>
   </cc:Work>
  </rdf:RDF>
 </metadata>
 <defs>
  <style type="text/css">*{stroke-linejoin: round; stroke-linecap: butt}</style>
 </defs>
 <g id="figure_1">
  <g id="patch_1">
   <path d="M 0 504 
L 648 504 
L 648 0 
L 0 0 
z
" style="fill: #ffffff"/>
  </g>
  <g id="subfigure_1">
   <g id="patch_2">
    <path d="M 0 240 
L 648 240 
L 648 0 
L 0 0 
L 0 240 
z
" style="fill: none"/>
   </g>
   <g id="axes_1">
    <g id="patch_3">
     <path d="M 81 213.6 
L 304.2 213.6 
L 304.2 28.8 
L 81 28.8 
z
" style="fill: #ffffff"/>
    </g>
    <g id="matplotlib.axis_1">
     <g id="xtick_1">
      <g id="line2d_1">
       <defs>
        <path id="me57c8a4e1c" d="M 0 0 
L 0 3.5 
" style="stroke: #000000; stroke-width: 0.8"/>
       </defs>
       <g>
        <use xlink:href="#me57c8a4e1c" x="91.145455" y="213.6" style="stroke: #000000; stroke-width: 0.8"/>
       </g>
      </g>
      <g id="text_1">
       <!-- 0 -->
       <g transform="translate(87.964205 228.198438) scale(0.1 -0.1)">
        <defs>
         <path id="DejaVuSans-30" d="M 2034 4250 
Q 1547 4250 1301 3770 
Q 1056 3291 1056 2328 
Q 1056 1369 1301 889 
Q 1547 409 2034 409 
Q 2525 409 2770 889 
Q 3016 1369 3016 2328 
Q 3016 3291 2770 3770 
Q 2525 4250 2034 4250 
z
M 2034 4750 
Q 2819 4750 3233 4129 
Q 3647 3509 3647 2328 
Q 3647 1150 3233 529 
Q 2819 -91 2034 -91 
Q 1250 -91 836 529 
Q 422 1150 422 2328 
Q 422 3509 836 4129 
Q 1250 4750 2034 4750 
z
" transform="scale(0.015625)"/>
        </defs>
        <use xlink:href="#DejaVuSans-30"/>
       </g>
      </g>
     </g>
     <g id="xtick_2">
      <g id="line2d_2">
       <g>
        <use xlink:href="#me57c8a4e1c" x="128.038017" y="213.6" style="stroke: #000000; stroke-width: 0.8"/>
       </g>
      </g>
      <g id="text_2">
       <!-- 2 -->
       <g transform="translate(124.856767 228.198438) scale(0.1 -0.1)">
        <defs>
         <path id="DejaVuSans-32" d="M 1228 531 
L 3431 531 
L 3431 0 
L 469 0 
L 469 531 
Q 828 903 1448 1529 
Q 2069 2156 2228 2338 
Q 2531 2678 2651 2914 
Q 2772 3150 2772 3378 
Q 2772 3750 2511 3984 
Q 2250 4219 1831 4219 
Q 1534 4219 1204 4116 
Q 875 4013 500 3803 
L 500 4441 
Q 881 4594 1212 4672 
Q 1544 4750 1819 4750 
Q 2544 4750 2975 4387 
Q 3406 4025 3406 3419 
Q 3406 3131 3298 2873 
Q 3191 2616 2906 2266 
Q 2828 2175 2409 1742 
Q 1991 1309 1228 531 
z
" transform="scale(0.015625)"/>
        </defs>
        <use xlink:href="#DejaVuSans-32"/>
       </g>
      </g>
     </g>
     <g id="xtick_3">
      <g id="line2d_3">
       <g>
        <use xlink:href="#me57c8a4e1c" x="164.930579" y="213.6" style="stroke: #000000; stroke-width: 0.8"/>
       </g>
      </g>
      <g id="text_3">
       <!-- 4 -->
       <g transform="translate(161.749329 228.198438) scale(0.1 -0.1)">
        <defs>
         <path id="DejaVuSans-34" d="M 2419 4116 
L 825 1625 
L 2419 1625 
L 2419 4116 
z
M 2253 4666 
L 3047 4666 
L 3047 1625 
L 3713 1625 
L 3713 1100 
L 3047 1100 
L 3047 0 
L 2419 0 
L 2419 1100 
L 313 1100 
L 313 1709 
L 2253 4666 
z
" transform="scale(0.015625)"/>
        </defs>
        <use xlink:href="#DejaVuSans-34"/>
       </g>
      </g>
     </g>
     <g id="xtick_4">
      <g id="line2d_4">
       <g>
        <use xlink:href="#me57c8a4e1c" x="201.82314" y="213.6" style="stroke: #000000; stroke-width: 0.8"/>
       </g>
      </g>
      <g id="text_4">
       <!-- 6 -->
       <g transform="translate(198.64189 228.198438) scale(0.1 -0.1)">
        <defs>
         <path id="DejaVuSans-36" d="M 2113 2584 
Q 1688 2584 1439 2293 
Q 1191 2003 1191 1497 
Q 1191 994 1439 701 
Q 1688 409 2113 409 
Q 2538 409 2786 701 
Q 3034 994 3034 1497 
Q 3034 2003 2786 2293 
Q 2538 2584 2113 2584 
z
M 3366 4563 
L 3366 3988 
Q 3128 4100 2886 4159 
Q 2644 4219 2406 4219 
Q 1781 4219 1451 3797 
Q 1122 3375 1075 2522 
Q 1259 2794 1537 2939 
Q 1816 3084 2150 3084 
Q 2853 3084 3261 2657 
Q 3669 2231 3669 1497 
Q 3669 778 3244 343 
Q 2819 -91 2113 -91 
Q 1303 -91 875 529 
Q 447 1150 447 2328 
Q 447 3434 972 4092 
Q 1497 4750 2381 4750 
Q 2619 4750 2861 4703 
Q 3103 4656 3366 4563 
z
" transform="scale(0.015625)"/>
        </defs>
        <use xlink:href="#DejaVuSans-36"/>
       </g>
      </g>
     </g>
     <g id="xtick_5">
      <g id="line2d_5">
       <g>
        <use xlink:href="#me57c8a4e1c" x="238.715702" y="213.6" style="stroke: #000000; stroke-width: 0.8"/>
       </g>
      </g>
      <g id="text_5">
       <!-- 8 -->
       <g transform="translate(235.534452 228.198438) scale(0.1 -0.1)">
        <defs>
         <path id="DejaVuSans-38" d="M 2034 2216 
Q 1584 2216 1326 1975 
Q 1069 1734 1069 1313 
Q 1069 891 1326 650 
Q 1584 409 2034 409 
Q 2484 409 2743 651 
Q 3003 894 3003 1313 
Q 3003 1734 2745 1975 
Q 2488 2216 2034 2216 
z
M 1403 2484 
Q 997 2584 770 2862 
Q 544 3141 544 3541 
Q 544 4100 942 4425 
Q 1341 4750 2034 4750 
Q 2731 4750 3128 4425 
Q 3525 4100 3525 3541 
Q 3525 3141 3298 2862 
Q 3072 2584 2669 2484 
Q 3125 2378 3379 2068 
Q 3634 1759 3634 1313 
Q 3634 634 3220 271 
Q 2806 -91 2034 -91 
Q 1263 -91 848 271 
Q 434 634 434 1313 
Q 434 1759 690 2068 
Q 947 2378 1403 2484 
z
M 1172 3481 
Q 1172 3119 1398 2916 
Q 1625 2713 2034 2713 
Q 2441 2713 2670 2916 
Q 2900 3119 2900 3481 
Q 2900 3844 2670 4047 
Q 2441 4250 2034 4250 
Q 1625 4250 1398 4047 
Q 1172 3844 1172 3481 
z
" transform="scale(0.015625)"/>
        </defs>
        <use xlink:href="#DejaVuSans-38"/>
       </g>
      </g>
     </g>
     <g id="xtick_6">
      <g id="line2d_6">
       <g>
        <use xlink:href="#me57c8a4e1c" x="275.608264" y="213.6" style="stroke: #000000; stroke-width: 0.8"/>
       </g>
      </g>
      <g id="text_6">
       <!-- 10 -->
       <g transform="translate(269.245764 228.198438) scale(0.1 -0.1)">
        <defs>
         <path id="DejaVuSans-31" d="M 794 531 
L 1825 531 
L 1825 4091 
L 703 3866 
L 703 4441 
L 1819 4666 
L 2450 4666 
L 2450 531 
L 3481 531 
L 3481 0 
L 794 0 
L 794 531 
z
" transform="scale(0.015625)"/>
        </defs>
        <use xlink:href="#DejaVuSans-31"/>
        <use xlink:href="#DejaVuSans-30" x="63.623047"/>
       </g>
      </g>
     </g>
     <g id="text_7">
      <!-- Time -->
      <g transform="translate(180.366406 241.876563) scale(0.1 -0.1)">
       <defs>
        <path id="DejaVuSans-54" d="M -19 4666 
L 3928 4666 
L 3928 4134 
L 2272 4134 
L 2272 0 
L 1638 0 
L 1638 4134 
L -19 4134 
L -19 4666 
z
" transform="scale(0.015625)"/>
        <path id="DejaVuSans-69" d="M 603 3500 
L 1178 3500 
L 1178 0 
L 603 0 
L 603 3500 
z
M 603 4863 
L 1178 4863 
L 1178 4134 
L 603 4134 
L 603 4863 
z
" transform="scale(0.015625)"/>
        <path id="DejaVuSans-6d" d="M 3328 2828 
Q 3544 3216 3844 3400 
Q 4144 3584 4550 3584 
Q 5097 3584 5394 3201 
Q 5691 2819 5691 2113 
L 5691 0 
L 5113 0 
L 5113 2094 
Q 5113 2597 4934 2840 
Q 4756 3084 4391 3084 
Q 3944 3084 3684 2787 
Q 3425 2491 3425 1978 
L 3425 0 
L 2847 0 
L 2847 2094 
Q 2847 2600 2669 2842 
Q 2491 3084 2119 3084 
Q 1678 3084 1418 2786 
Q 1159 2488 1159 1978 
L 1159 0 
L 581 0 
L 581 3500 
L 1159 3500 
L 1159 2956 
Q 1356 3278 1631 3431 
Q 1906 3584 2284 3584 
Q 2666 3584 2933 3390 
Q 3200 3197 3328 2828 
z
" transform="scale(0.015625)"/>
        <path id="DejaVuSans-65" d="M 3597 1894 
L 3597 1613 
L 953 1613 
Q 991 1019 1311 708 
Q 1631 397 2203 397 
Q 2534 397 2845 478 
Q 3156 559 3463 722 
L 3463 178 
Q 3153 47 2828 -22 
Q 2503 -91 2169 -91 
Q 1331 -91 842 396 
Q 353 884 353 1716 
Q 353 2575 817 3079 
Q 1281 3584 2069 3584 
Q 2775 3584 3186 3129 
Q 3597 2675 3597 1894 
z
M 3022 2063 
Q 3016 2534 2758 2815 
Q 2500 3097 2075 3097 
Q 1594 3097 1305 2825 
Q 1016 2553 972 2059 
L 3022 2063 
z
" transform="scale(0.015625)"/>
       </defs>
       <use xlink:href="#DejaVuSans-54"/>
       <use xlink:href="#DejaVuSans-69" x="57.958984"/>
       <use xlink:href="#DejaVuSans-6d" x="85.742188"/>
       <use xlink:href="#DejaVuSans-65" x="183.154297"/>
      </g>
     </g>
    </g>
    <g id="matplotlib.axis_2">
     <g id="ytick_1">
      <g id="line2d_7">
       <defs>
        <path id="mb7090e00b9" d="M 0 0 
L -3.5 0 
" style="stroke: #000000; stroke-width: 0.8"/>
       </defs>
       <g>
        <use xlink:href="#mb7090e00b9" x="81" y="213.6" style="stroke: #000000; stroke-width: 0.8"/>
       </g>
      </g>
      <g id="text_8">
       <!-- 0.0 -->
       <g transform="translate(58.096875 217.399219) scale(0.1 -0.1)">
        <defs>
         <path id="DejaVuSans-2e" d="M 684 794 
L 1344 794 
L 1344 0 
L 684 0 
L 684 794 
z
" transform="scale(0.015625)"/>
        </defs>
        <use xlink:href="#DejaVuSans-30"/>
        <use xlink:href="#DejaVuSans-2e" x="63.623047"/>
        <use xlink:href="#DejaVuSans-30" x="95.410156"/>
       </g>
      </g>
     </g>
     <g id="ytick_2">
      <g id="line2d_8">
       <g>
        <use xlink:href="#mb7090e00b9" x="81" y="176.64" style="stroke: #000000; stroke-width: 0.8"/>
       </g>
      </g>
      <g id="text_9">
       <!-- 0.2 -->
       <g transform="translate(58.096875 180.439219) scale(0.1 -0.1)">
        <use xlink:href="#DejaVuSans-30"/>
        <use xlink:href="#DejaVuSans-2e" x="63.623047"/>
        <use xlink:href="#DejaVuSans-32" x="95.410156"/>
       </g>
      </g>
     </g>
     <g id="ytick_3">
      <g id="line2d_9">
       <g>
        <use xlink:href="#mb7090e00b9" x="81" y="139.68" style="stroke: #000000; stroke-width: 0.8"/>
       </g>
      </g>
      <g id="text_10">
       <!-- 0.4 -->
       <g transform="translate(58.096875 143.479219) scale(0.1 -0.1)">
        <use xlink:href="#DejaVuSans-30"/>
        <use xlink:href="#DejaVuSans-2e" x="63.623047"/>
        <use xlink:href="#DejaVuSans-34" x="95.410156"/>
       </g>
      </g>
     </g>
     <g id="ytick_4">
      <g id="line2d_10">
       <g>
        <use xlink:href="#mb7090e00b9" x="81" y="102.72" style="stroke: #000000; stroke-width: 0.8"/>
       </g>
      </g>
      <g id="text_11">
       <!-- 0.6 -->
       <g transform="translate(58.096875 106.519219) scale(0.1 -0.1)">
        <use xlink:href="#DejaVuSans-30"/>
        <use xlink:href="#DejaVuSans-2e" x="63.623047"/>
        <use xlink:href="#DejaVuSans-36" x="95.410156"/>
       </g>
      </g>
     </g>
     <g id="ytick_5">
      <g id="line2d_11">
       <g>
        <use xlink:href="#mb7090e00b9" x="81" y="65.76" style="stroke: #000000; stroke-width: 0.8"/>
       </g>
      </g>
      <g id="text_12">
       <!-- 0.8 -->
       <g transform="translate(58.096875 69.559219) scale(0.1 -0.1)">
        <use xlink:href="#DejaVuSans-30"/>
        <use xlink:href="#DejaVuSans-2e" x="63.623047"/>
        <use xlink:href="#DejaVuSans-38" x="95.410156"/>
       </g>
      </g>
     </g>
     <g id="ytick_6">
      <g id="line2d_12">
       <g>
        <use xlink:href="#mb7090e00b9" x="81" y="28.8" style="stroke: #000000; stroke-width: 0.8"/>
       </g>
      </g>
      <g id="text_13">
       <!-- 1.0 -->
       <g transform="translate(58.096875 32.599219) scale(0.1 -0.1)">
        <use xlink:href="#DejaVuSans-31"/>
        <use xlink:href="#DejaVuSans-2e" x="63.623047"/>
        <use xlink:href="#DejaVuSans-30" x="95.410156"/>
       </g>
      </g>
     </g>
     <g id="text_14">
      <!-- Feature 1 functional -->
      <g transform="translate(52.017187 171.326563) rotate(-90) scale(0.1 -0.1)">
       <defs>
        <path id="DejaVuSans-46" d="M 628 4666 
L 3309 4666 
L 3309 4134 
L 1259 4134 
L 1259 2759 
L 3109 2759 
L 3109 2228 
L 1259 2228 
L 1259 0 
L 628 0 
L 628 4666 
z
" transform="scale(0.015625)"/>
        <path id="DejaVuSans-61" d="M 2194 1759 
Q 1497 1759 1228 1600 
Q 959 1441 959 1056 
Q 959 750 1161 570 
Q 1363 391 1709 391 
Q 2188 391 2477 730 
Q 2766 1069 2766 1631 
L 2766 1759 
L 2194 1759 
z
M 3341 1997 
L 3341 0 
L 2766 0 
L 2766 531 
Q 2569 213 2275 61 
Q 1981 -91 1556 -91 
Q 1019 -91 701 211 
Q 384 513 384 1019 
Q 384 1609 779 1909 
Q 1175 2209 1959 2209 
L 2766 2209 
L 2766 2266 
Q 2766 2663 2505 2880 
Q 2244 3097 1772 3097 
Q 1472 3097 1187 3025 
Q 903 2953 641 2809 
L 641 3341 
Q 956 3463 1253 3523 
Q 1550 3584 1831 3584 
Q 2591 3584 2966 3190 
Q 3341 2797 3341 1997 
z
" transform="scale(0.015625)"/>
        <path id="DejaVuSans-74" d="M 1172 4494 
L 1172 3500 
L 2356 3500 
L 2356 3053 
L 1172 3053 
L 1172 1153 
Q 1172 725 1289 603 
Q 1406 481 1766 481 
L 2356 481 
L 2356 0 
L 1766 0 
Q 1100 0 847 248 
Q 594 497 594 1153 
L 594 3053 
L 172 3053 
L 172 3500 
L 594 3500 
L 594 4494 
L 1172 4494 
z
" transform="scale(0.015625)"/>
        <path id="DejaVuSans-75" d="M 544 1381 
L 544 3500 
L 1119 3500 
L 1119 1403 
Q 1119 906 1312 657 
Q 1506 409 1894 409 
Q 2359 409 2629 706 
Q 2900 1003 2900 1516 
L 2900 3500 
L 3475 3500 
L 3475 0 
L 2900 0 
L 2900 538 
Q 2691 219 2414 64 
Q 2138 -91 1772 -91 
Q 1169 -91 856 284 
Q 544 659 544 1381 
z
M 1991 3584 
L 1991 3584 
z
" transform="scale(0.015625)"/>
        <path id="DejaVuSans-72" d="M 2631 2963 
Q 2534 3019 2420 3045 
Q 2306 3072 2169 3072 
Q 1681 3072 1420 2755 
Q 1159 2438 1159 1844 
L 1159 0 
L 581 0 
L 581 3500 
L 1159 3500 
L 1159 2956 
Q 1341 3275 1631 3429 
Q 1922 3584 2338 3584 
Q 2397 3584 2469 3576 
Q 2541 3569 2628 3553 
L 2631 2963 
z
" transform="scale(0.015625)"/>
        <path id="DejaVuSans-20" transform="scale(0.015625)"/>
        <path id="DejaVuSans-66" d="M 2375 4863 
L 2375 4384 
L 1825 4384 
Q 1516 4384 1395 4259 
Q 1275 4134 1275 3809 
L 1275 3500 
L 2222 3500 
L 2222 3053 
L 1275 3053 
L 1275 0 
L 697 0 
L 697 3053 
L 147 3053 
L 147 3500 
L 697 3500 
L 697 3744 
Q 697 4328 969 4595 
Q 1241 4863 1831 4863 
L 2375 4863 
z
" transform="scale(0.015625)"/>
        <path id="DejaVuSans-6e" d="M 3513 2113 
L 3513 0 
L 2938 0 
L 2938 2094 
Q 2938 2591 2744 2837 
Q 2550 3084 2163 3084 
Q 1697 3084 1428 2787 
Q 1159 2491 1159 1978 
L 1159 0 
L 581 0 
L 581 3500 
L 1159 3500 
L 1159 2956 
Q 1366 3272 1645 3428 
Q 1925 3584 2291 3584 
Q 2894 3584 3203 3211 
Q 3513 2838 3513 2113 
z
" transform="scale(0.015625)"/>
        <path id="DejaVuSans-63" d="M 3122 3366 
L 3122 2828 
Q 2878 2963 2633 3030 
Q 2388 3097 2138 3097 
Q 1578 3097 1268 2742 
Q 959 2388 959 1747 
Q 959 1106 1268 751 
Q 1578 397 2138 397 
Q 2388 397 2633 464 
Q 2878 531 3122 666 
L 3122 134 
Q 2881 22 2623 -34 
Q 2366 -91 2075 -91 
Q 1284 -91 818 406 
Q 353 903 353 1747 
Q 353 2603 823 3093 
Q 1294 3584 2113 3584 
Q 2378 3584 2631 3529 
Q 2884 3475 3122 3366 
z
" transform="scale(0.015625)"/>
        <path id="DejaVuSans-6f" d="M 1959 3097 
Q 1497 3097 1228 2736 
Q 959 2375 959 1747 
Q 959 1119 1226 758 
Q 1494 397 1959 397 
Q 2419 397 2687 759 
Q 2956 1122 2956 1747 
Q 2956 2369 2687 2733 
Q 2419 3097 1959 3097 
z
M 1959 3584 
Q 2709 3584 3137 3096 
Q 3566 2609 3566 1747 
Q 3566 888 3137 398 
Q 2709 -91 1959 -91 
Q 1206 -91 779 398 
Q 353 888 353 1747 
Q 353 2609 779 3096 
Q 1206 3584 1959 3584 
z
" transform="scale(0.015625)"/>
        <path id="DejaVuSans-6c" d="M 603 4863 
L 1178 4863 
L 1178 0 
L 603 0 
L 603 4863 
z
" transform="scale(0.015625)"/>
       </defs>
       <use xlink:href="#DejaVuSans-46"/>
       <use xlink:href="#DejaVuSans-65" x="52.019531"/>
       <use xlink:href="#DejaVuSans-61" x="113.542969"/>
       <use xlink:href="#DejaVuSans-74" x="174.822266"/>
       <use xlink:href="#DejaVuSans-75" x="214.03125"/>
       <use xlink:href="#DejaVuSans-72" x="277.410156"/>
       <use xlink:href="#DejaVuSans-65" x="316.273438"/>
       <use xlink:href="#DejaVuSans-20" x="377.796875"/>
       <use xlink:href="#DejaVuSans-31" x="409.583984"/>
       <use xlink:href="#DejaVuSans-20" x="473.207031"/>
       <use xlink:href="#DejaVuSans-66" x="504.994141"/>
       <use xlink:href="#DejaVuSans-75" x="540.199219"/>
       <use xlink:href="#DejaVuSans-6e" x="603.578125"/>
       <use xlink:href="#DejaVuSans-63" x="666.957031"/>
       <use xlink:href="#DejaVuSans-74" x="721.9375"/>
       <use xlink:href="#DejaVuSans-69" x="761.146484"/>
       <use xlink:href="#DejaVuSans-6f" x="788.929688"/>
       <use xlink:href="#DejaVuSans-6e" x="850.111328"/>
       <use xlink:href="#DejaVuSans-61" x="913.490234"/>
       <use xlink:href="#DejaVuSans-6c" x="974.769531"/>
      </g>
     </g>
    </g>
    <g id="line2d_13">
     <path d="M 91.145455 28.8 
L 93.195041 47.449541 
L 95.244628 62.964706 
L 97.294215 76.074419 
L 99.343802 87.297842 
L 101.393388 97.014765 
L 103.442975 105.509434 
L 105.492562 112.998817 
L 107.542149 119.651397 
L 109.591736 125.6 
L 111.641322 130.950754 
L 113.690909 135.789474 
L 115.740496 140.186301 
L 117.790083 144.199127 
L 119.839669 147.876151 
L 121.889256 151.257831 
L 123.938843 154.378378 
L 125.98843 157.266914 
L 128.038017 159.948387 
L 130.087603 162.444291 
L 132.13719 164.773244 
L 134.186777 166.951456 
L 136.236364 168.993103 
L 138.28595 170.910638 
L 140.335537 172.715044 
L 142.385124 174.416046 
L 144.434711 176.022284 
L 146.484298 177.541463 
L 148.533884 178.980475 
L 150.583471 180.345501 
L 152.633058 181.642105 
L 154.682645 182.875306 
L 156.732231 184.049642 
L 158.781818 185.169231 
L 160.831405 186.237813 
L 162.880992 187.258797 
L 164.930579 188.235294 
L 166.980165 189.170149 
L 169.029752 190.065971 
L 171.079339 190.925153 
L 173.128926 191.7499 
L 175.178512 192.54224 
L 177.228099 193.304046 
L 179.277686 194.037051 
L 181.327273 194.742857 
L 183.37686 195.422951 
L 185.426446 196.078712 
L 187.476033 196.711424 
L 189.52562 197.32228 
L 191.575207 197.912394 
L 193.624793 198.482805 
L 195.67438 199.034483 
L 197.723967 199.568336 
L 199.773554 200.085215 
L 201.82314 200.585915 
L 203.872727 201.071186 
L 205.922314 201.54173 
L 207.971901 201.998206 
L 210.021488 202.441237 
L 212.071074 202.871408 
L 214.120661 203.28927 
L 216.170248 203.695346 
L 218.219835 204.090125 
L 220.269421 204.474074 
L 222.319008 204.847632 
L 224.368595 205.211215 
L 226.418182 205.565217 
L 228.467769 205.910013 
L 230.517355 206.245956 
L 232.566942 206.573384 
L 234.616529 206.892616 
L 236.666116 207.203956 
L 238.715702 207.507692 
L 240.765289 207.804101 
L 242.814876 208.093445 
L 244.864463 208.375972 
L 246.91405 208.651921 
L 248.963636 208.921519 
L 251.013223 209.184983 
L 253.06281 209.44252 
L 255.112397 209.694327 
L 257.161983 209.940594 
L 259.21157 210.181502 
L 261.261157 210.417223 
L 263.310744 210.647923 
L 265.360331 210.873762 
L 267.409917 211.094891 
L 269.459504 211.311455 
L 271.509091 211.523596 
L 273.558678 211.731446 
L 275.608264 211.935135 
L 277.657851 212.134787 
L 279.707438 212.33052 
L 281.757025 212.522449 
L 283.806612 212.710683 
L 285.856198 212.895329 
L 287.905785 213.076487 
L 289.955372 213.254256 
L 292.004959 213.42873 
L 294.054545 213.6 
" clip-path="url(#p7049650c96)" style="fill: none; stroke-dasharray: 1.5,2.475; stroke-dashoffset: 0; stroke: #440154; stroke-width: 1.5"/>
    </g>
    <g id="line2d_14">
     <path d="M 91.145455 28.8 
L 93.195041 28.932259 
L 95.244628 29.078356 
L 97.294215 29.239714 
L 99.343802 29.417896 
L 101.393388 29.614619 
L 103.442975 29.831766 
L 105.492562 30.0714 
L 107.542149 30.335782 
L 109.591736 30.627384 
L 111.641322 30.948909 
L 113.690909 31.303302 
L 115.740496 31.693776 
L 117.790083 32.12382 
L 119.839669 32.597227 
L 121.889256 33.118101 
L 123.938843 33.69088 
L 125.98843 34.320347 
L 128.038017 35.011641 
L 130.087603 35.77027 
L 132.13719 36.602109 
L 134.186777 37.513405 
L 136.236364 38.510766 
L 138.28595 39.601145 
L 140.335537 40.791814 
L 142.385124 42.090328 
L 144.434711 43.504471 
L 146.484298 45.042189 
L 148.533884 46.711508 
L 150.583471 48.520429 
L 152.633058 50.476802 
L 154.682645 52.588185 
L 156.732231 54.861673 
L 158.781818 57.303714 
L 160.831405 59.919902 
L 162.880992 62.714755 
L 164.930579 65.691487 
L 166.980165 68.851771 
L 169.029752 72.195508 
L 171.079339 75.720614 
L 173.128926 79.422824 
L 175.178512 83.295549 
L 177.228099 87.329761 
L 179.277686 91.513959 
L 181.327273 95.834187 
L 183.37686 100.274146 
L 185.426446 104.815369 
L 187.476033 109.437489 
L 189.52562 114.118571 
L 191.575207 118.835512 
L 193.624793 123.564488 
L 195.67438 128.281429 
L 197.723967 132.962511 
L 199.773554 137.584631 
L 201.82314 142.125854 
L 203.872727 146.565813 
L 205.922314 150.886041 
L 207.971901 155.070239 
L 210.021488 159.104451 
L 212.071074 162.977176 
L 214.120661 166.679386 
L 216.170248 170.204492 
L 218.219835 173.548229 
L 220.269421 176.708513 
L 222.319008 179.685245 
L 224.368595 182.480098 
L 226.418182 185.096286 
L 228.467769 187.538327 
L 230.517355 189.811815 
L 232.566942 191.923198 
L 234.616529 193.879571 
L 236.666116 195.688492 
L 238.715702 197.357811 
L 240.765289 198.895529 
L 242.814876 200.309672 
L 244.864463 201.608186 
L 246.91405 202.798855 
L 248.963636 203.889234 
L 251.013223 204.886595 
L 253.06281 205.797891 
L 255.112397 206.62973 
L 257.161983 207.388359 
L 259.21157 208.079653 
L 261.261157 208.70912 
L 263.310744 209.281899 
L 265.360331 209.802773 
L 267.409917 210.27618 
L 269.459504 210.706224 
L 271.509091 211.096698 
L 273.558678 211.451091 
L 275.608264 211.772616 
L 277.657851 212.064218 
L 279.707438 212.3286 
L 281.757025 212.568234 
L 283.806612 212.785381 
L 285.856198 212.982104 
L 287.905785 213.160286 
L 289.955372 213.321644 
L 292.004959 213.467741 
L 294.054545 213.6 
" clip-path="url(#p7049650c96)" style="fill: none; stroke-dasharray: 5.55,2.4; stroke-dashoffset: 0; stroke: #21918c; stroke-width: 1.5"/>
    </g>
    <g id="line2d_15">
     <path d="M 91.145455 28.8 
L 93.195041 28.901575 
L 95.244628 29.028995 
L 97.294215 29.187956 
L 99.343802 29.385167 
L 101.393388 29.628472 
L 103.442975 29.92697 
L 105.492562 30.29113 
L 107.542149 30.732899 
L 109.591736 31.265788 
L 111.641322 31.904941 
L 113.690909 32.667173 
L 115.740496 33.570966 
L 117.790083 34.636421 
L 119.839669 35.885155 
L 121.889256 37.340126 
L 123.938843 39.025396 
L 125.98843 40.96581 
L 128.038017 43.186591 
L 130.087603 45.71285 
L 132.13719 48.569016 
L 134.186777 51.778176 
L 136.236364 55.361352 
L 138.28595 59.336708 
L 140.335537 63.718714 
L 142.385124 68.517291 
L 144.434711 73.736947 
L 146.484298 79.375947 
L 148.533884 85.425536 
L 150.583471 91.869259 
L 152.633058 98.682398 
L 154.682645 105.831573 
L 156.732231 113.274527 
L 158.781818 120.960124 
L 160.831405 128.828587 
L 162.880992 136.811986 
L 164.930579 144.834981 
L 166.980165 152.815833 
L 169.029752 160.667646 
L 171.079339 168.299841 
L 173.128926 175.619828 
L 175.178512 182.53482 
L 177.228099 188.953762 
L 179.277686 194.789304 
L 181.327273 199.959766 
L 183.37686 204.39104 
L 185.426446 208.018347 
L 187.476033 210.787818 
L 189.52562 212.65782 
L 191.575207 213.6 
L 193.624793 213.6 
L 195.67438 212.65782 
L 197.723967 210.787818 
L 199.773554 208.018347 
L 201.82314 204.39104 
L 203.872727 199.959766 
L 205.922314 194.789304 
L 207.971901 188.953762 
L 210.021488 182.53482 
L 212.071074 175.619828 
L 214.120661 168.299841 
L 216.170248 160.667646 
L 218.219835 152.815833 
L 220.269421 144.834981 
L 222.319008 136.811986 
L 224.368595 128.828587 
L 226.418182 120.960124 
L 228.467769 113.274527 
L 230.517355 105.831573 
L 232.566942 98.682398 
L 234.616529 91.869259 
L 236.666116 85.425536 
L 238.715702 79.375947 
L 240.765289 73.736947 
L 242.814876 68.517291 
L 244.864463 63.718714 
L 246.91405 59.336708 
L 248.963636 55.361352 
L 251.013223 51.778176 
L 253.06281 48.569016 
L 255.112397 45.71285 
L 257.161983 43.186591 
L 259.21157 40.96581 
L 261.261157 39.025396 
L 263.310744 37.340126 
L 265.360331 35.885155 
L 267.409917 34.636421 
L 269.459504 33.570966 
L 271.509091 32.667173 
L 273.558678 31.904941 
L 275.608264 31.265788 
L 277.657851 30.732899 
L 279.707438 30.29113 
L 281.757025 29.92697 
L 283.806612 29.628472 
L 285.856198 29.385167 
L 287.905785 29.187956 
L 289.955372 29.028995 
L 292.004959 28.901575 
L 294.054545 28.8 
" clip-path="url(#p7049650c96)" style="fill: none; stroke: #fde725; stroke-width: 1.5; stroke-linecap: square"/>
    </g>
    <g id="patch_4">
     <path d="M 81 213.6 
L 81 28.8 
" style="fill: none; stroke: #000000; stroke-width: 0.8; stroke-linejoin: miter; stroke-linecap: square"/>
    </g>
    <g id="patch_5">
     <path d="M 304.2 213.6 
L 304.2 28.8 
" style="fill: none; stroke: #000000; stroke-width: 0.8; stroke-linejoin: miter; stroke-linecap: square"/>
    </g>
    <g id="patch_6">
     <path d="M 81 213.6 
L 304.2 213.6 
" style="fill: none; stroke: #000000; stroke-width: 0.8; stroke-linejoin: miter; stroke-linecap: square"/>
    </g>
    <g id="patch_7">
     <path d="M 81 28.8 
L 304.2 28.8 
" style="fill: none; stroke: #000000; stroke-width: 0.8; stroke-linejoin: miter; stroke-linecap: square"/>
    </g>
    <g id="legend_1">
     <g id="patch_8">
      <path d="M 229.351562 144.717188 
L 297.2 144.717188 
Q 299.2 144.717188 299.2 142.717188 
L 299.2 99.682813 
Q 299.2 97.682813 297.2 97.682813 
L 229.351562 97.682813 
Q 227.351562 97.682813 227.351562 99.682813 
L 227.351562 142.717188 
Q 227.351562 144.717188 229.351562 144.717188 
z
" style="fill: #ffffff; opacity: 0.8; stroke: #cccccc; stroke-linejoin: miter"/>
     </g>
     <g id="line2d_16">
      <path d="M 231.351562 105.78125 
L 241.351562 105.78125 
L 251.351562 105.78125 
" style="fill: none; stroke-dasharray: 1.5,2.475; stroke-dashoffset: 0; stroke: #440154; stroke-width: 1.5"/>
     </g>
     <g id="text_15">
      <!-- Class 1 -->
      <g transform="translate(259.351562 109.28125) scale(0.1 -0.1)">
       <defs>
        <path id="DejaVuSans-43" d="M 4122 4306 
L 4122 3641 
Q 3803 3938 3442 4084 
Q 3081 4231 2675 4231 
Q 1875 4231 1450 3742 
Q 1025 3253 1025 2328 
Q 1025 1406 1450 917 
Q 1875 428 2675 428 
Q 3081 428 3442 575 
Q 3803 722 4122 1019 
L 4122 359 
Q 3791 134 3420 21 
Q 3050 -91 2638 -91 
Q 1578 -91 968 557 
Q 359 1206 359 2328 
Q 359 3453 968 4101 
Q 1578 4750 2638 4750 
Q 3056 4750 3426 4639 
Q 3797 4528 4122 4306 
z
" transform="scale(0.015625)"/>
        <path id="DejaVuSans-73" d="M 2834 3397 
L 2834 2853 
Q 2591 2978 2328 3040 
Q 2066 3103 1784 3103 
Q 1356 3103 1142 2972 
Q 928 2841 928 2578 
Q 928 2378 1081 2264 
Q 1234 2150 1697 2047 
L 1894 2003 
Q 2506 1872 2764 1633 
Q 3022 1394 3022 966 
Q 3022 478 2636 193 
Q 2250 -91 1575 -91 
Q 1294 -91 989 -36 
Q 684 19 347 128 
L 347 722 
Q 666 556 975 473 
Q 1284 391 1588 391 
Q 1994 391 2212 530 
Q 2431 669 2431 922 
Q 2431 1156 2273 1281 
Q 2116 1406 1581 1522 
L 1381 1569 
Q 847 1681 609 1914 
Q 372 2147 372 2553 
Q 372 3047 722 3315 
Q 1072 3584 1716 3584 
Q 2034 3584 2315 3537 
Q 2597 3491 2834 3397 
z
" transform="scale(0.015625)"/>
       </defs>
       <use xlink:href="#DejaVuSans-43"/>
       <use xlink:href="#DejaVuSans-6c" x="69.824219"/>
       <use xlink:href="#DejaVuSans-61" x="97.607422"/>
       <use xlink:href="#DejaVuSans-73" x="158.886719"/>
       <use xlink:href="#DejaVuSans-73" x="210.986328"/>
       <use xlink:href="#DejaVuSans-20" x="263.085938"/>
       <use xlink:href="#DejaVuSans-31" x="294.873047"/>
      </g>
     </g>
     <g id="line2d_17">
      <path d="M 231.351562 120.459375 
L 241.351562 120.459375 
L 251.351562 120.459375 
" style="fill: none; stroke-dasharray: 5.55,2.4; stroke-dashoffset: 0; stroke: #21918c; stroke-width: 1.5"/>
     </g>
     <g id="text_16">
      <!-- Class 2 -->
      <g transform="translate(259.351562 123.959375) scale(0.1 -0.1)">
       <use xlink:href="#DejaVuSans-43"/>
       <use xlink:href="#DejaVuSans-6c" x="69.824219"/>
       <use xlink:href="#DejaVuSans-61" x="97.607422"/>
       <use xlink:href="#DejaVuSans-73" x="158.886719"/>
       <use xlink:href="#DejaVuSans-73" x="210.986328"/>
       <use xlink:href="#DejaVuSans-20" x="263.085938"/>
       <use xlink:href="#DejaVuSans-32" x="294.873047"/>
      </g>
     </g>
     <g id="line2d_18">
      <path d="M 231.351562 135.1375 
L 241.351562 135.1375 
L 251.351562 135.1375 
" style="fill: none; stroke: #fde725; stroke-width: 1.5; stroke-linecap: square"/>
     </g>
     <g id="text_17">
      <!-- Class 3 -->
      <g transform="translate(259.351562 138.6375) scale(0.1 -0.1)">
       <defs>
        <path id="DejaVuSans-33" d="M 2597 2516 
Q 3050 2419 3304 2112 
Q 3559 1806 3559 1356 
Q 3559 666 3084 287 
Q 2609 -91 1734 -91 
Q 1441 -91 1130 -33 
Q 819 25 488 141 
L 488 750 
Q 750 597 1062 519 
Q 1375 441 1716 441 
Q 2309 441 2620 675 
Q 2931 909 2931 1356 
Q 2931 1769 2642 2001 
Q 2353 2234 1838 2234 
L 1294 2234 
L 1294 2753 
L 1863 2753 
Q 2328 2753 2575 2939 
Q 2822 3125 2822 3475 
Q 2822 3834 2567 4026 
Q 2313 4219 1838 4219 
Q 1578 4219 1281 4162 
Q 984 4106 628 3988 
L 628 4550 
Q 988 4650 1302 4700 
Q 1616 4750 1894 4750 
Q 2613 4750 3031 4423 
Q 3450 4097 3450 3541 
Q 3450 3153 3228 2886 
Q 3006 2619 2597 2516 
z
" transform="scale(0.015625)"/>
       </defs>
       <use xlink:href="#DejaVuSans-43"/>
       <use xlink:href="#DejaVuSans-6c" x="69.824219"/>
       <use xlink:href="#DejaVuSans-61" x="97.607422"/>
       <use xlink:href="#DejaVuSans-73" x="158.886719"/>
       <use xlink:href="#DejaVuSans-73" x="210.986328"/>
       <use xlink:href="#DejaVuSans-20" x="263.085938"/>
       <use xlink:href="#DejaVuSans-33" x="294.873047"/>
      </g>
     </g>
    </g>
   </g>
   <g id="axes_2">
    <g id="patch_9">
     <path d="M 360 213.6 
L 583.2 213.6 
L 583.2 28.8 
L 360 28.8 
z
" style="fill: #ffffff"/>
    </g>
    <g id="matplotlib.axis_3">
     <g id="xtick_7">
      <g id="line2d_19">
       <g>
        <use xlink:href="#me57c8a4e1c" x="370.145455" y="213.6" style="stroke: #000000; stroke-width: 0.8"/>
       </g>
      </g>
      <g id="text_18">
       <!-- 0 -->
       <g transform="translate(366.964205 228.198438) scale(0.1 -0.1)">
        <use xlink:href="#DejaVuSans-30"/>
       </g>
      </g>
     </g>
     <g id="xtick_8">
      <g id="line2d_20">
       <g>
        <use xlink:href="#me57c8a4e1c" x="407.038017" y="213.6" style="stroke: #000000; stroke-width: 0.8"/>
       </g>
      </g>
      <g id="text_19">
       <!-- 2 -->
       <g transform="translate(403.856767 228.198438) scale(0.1 -0.1)">
        <use xlink:href="#DejaVuSans-32"/>
       </g>
      </g>
     </g>
     <g id="xtick_9">
      <g id="line2d_21">
       <g>
        <use xlink:href="#me57c8a4e1c" x="443.930579" y="213.6" style="stroke: #000000; stroke-width: 0.8"/>
       </g>
      </g>
      <g id="text_20">
       <!-- 4 -->
       <g transform="translate(440.749329 228.198438) scale(0.1 -0.1)">
        <use xlink:href="#DejaVuSans-34"/>
       </g>
      </g>
     </g>
     <g id="xtick_10">
      <g id="line2d_22">
       <g>
        <use xlink:href="#me57c8a4e1c" x="480.82314" y="213.6" style="stroke: #000000; stroke-width: 0.8"/>
       </g>
      </g>
      <g id="text_21">
       <!-- 6 -->
       <g transform="translate(477.64189 228.198438) scale(0.1 -0.1)">
        <use xlink:href="#DejaVuSans-36"/>
       </g>
      </g>
     </g>
     <g id="xtick_11">
      <g id="line2d_23">
       <g>
        <use xlink:href="#me57c8a4e1c" x="517.715702" y="213.6" style="stroke: #000000; stroke-width: 0.8"/>
       </g>
      </g>
      <g id="text_22">
       <!-- 8 -->
       <g transform="translate(514.534452 228.198438) scale(0.1 -0.1)">
        <use xlink:href="#DejaVuSans-38"/>
       </g>
      </g>
     </g>
     <g id="xtick_12">
      <g id="line2d_24">
       <g>
        <use xlink:href="#me57c8a4e1c" x="554.608264" y="213.6" style="stroke: #000000; stroke-width: 0.8"/>
       </g>
      </g>
      <g id="text_23">
       <!-- 10 -->
       <g transform="translate(548.245764 228.198438) scale(0.1 -0.1)">
        <use xlink:href="#DejaVuSans-31"/>
        <use xlink:href="#DejaVuSans-30" x="63.623047"/>
       </g>
      </g>
     </g>
     <g id="text_24">
      <!-- Time -->
      <g transform="translate(459.366406 241.876563) scale(0.1 -0.1)">
       <use xlink:href="#DejaVuSans-54"/>
       <use xlink:href="#DejaVuSans-69" x="57.958984"/>
       <use xlink:href="#DejaVuSans-6d" x="85.742188"/>
       <use xlink:href="#DejaVuSans-65" x="183.154297"/>
      </g>
     </g>
    </g>
    <g id="matplotlib.axis_4">
     <g id="ytick_7">
      <g id="line2d_25">
       <g>
        <use xlink:href="#mb7090e00b9" x="360" y="213.6" style="stroke: #000000; stroke-width: 0.8"/>
       </g>
      </g>
      <g id="text_25">
       <!-- 0.0 -->
       <g transform="translate(337.096875 217.399219) scale(0.1 -0.1)">
        <use xlink:href="#DejaVuSans-30"/>
        <use xlink:href="#DejaVuSans-2e" x="63.623047"/>
        <use xlink:href="#DejaVuSans-30" x="95.410156"/>
       </g>
      </g>
     </g>
     <g id="ytick_8">
      <g id="line2d_26">
       <g>
        <use xlink:href="#mb7090e00b9" x="360" y="176.64" style="stroke: #000000; stroke-width: 0.8"/>
       </g>
      </g>
      <g id="text_26">
       <!-- 0.2 -->
       <g transform="translate(337.096875 180.439219) scale(0.1 -0.1)">
        <use xlink:href="#DejaVuSans-30"/>
        <use xlink:href="#DejaVuSans-2e" x="63.623047"/>
        <use xlink:href="#DejaVuSans-32" x="95.410156"/>
       </g>
      </g>
     </g>
     <g id="ytick_9">
      <g id="line2d_27">
       <g>
        <use xlink:href="#mb7090e00b9" x="360" y="139.68" style="stroke: #000000; stroke-width: 0.8"/>
       </g>
      </g>
      <g id="text_27">
       <!-- 0.4 -->
       <g transform="translate(337.096875 143.479219) scale(0.1 -0.1)">
        <use xlink:href="#DejaVuSans-30"/>
        <use xlink:href="#DejaVuSans-2e" x="63.623047"/>
        <use xlink:href="#DejaVuSans-34" x="95.410156"/>
       </g>
      </g>
     </g>
     <g id="ytick_10">
      <g id="line2d_28">
       <g>
        <use xlink:href="#mb7090e00b9" x="360" y="102.72" style="stroke: #000000; stroke-width: 0.8"/>
       </g>
      </g>
      <g id="text_28">
       <!-- 0.6 -->
       <g transform="translate(337.096875 106.519219) scale(0.1 -0.1)">
        <use xlink:href="#DejaVuSans-30"/>
        <use xlink:href="#DejaVuSans-2e" x="63.623047"/>
        <use xlink:href="#DejaVuSans-36" x="95.410156"/>
       </g>
      </g>
     </g>
     <g id="ytick_11">
      <g id="line2d_29">
       <g>
        <use xlink:href="#mb7090e00b9" x="360" y="65.76" style="stroke: #000000; stroke-width: 0.8"/>
       </g>
      </g>
      <g id="text_29">
       <!-- 0.8 -->
       <g transform="translate(337.096875 69.559219) scale(0.1 -0.1)">
        <use xlink:href="#DejaVuSans-30"/>
        <use xlink:href="#DejaVuSans-2e" x="63.623047"/>
        <use xlink:href="#DejaVuSans-38" x="95.410156"/>
       </g>
      </g>
     </g>
     <g id="ytick_12">
      <g id="line2d_30">
       <g>
        <use xlink:href="#mb7090e00b9" x="360" y="28.8" style="stroke: #000000; stroke-width: 0.8"/>
       </g>
      </g>
      <g id="text_30">
       <!-- 1.0 -->
       <g transform="translate(337.096875 32.599219) scale(0.1 -0.1)">
        <use xlink:href="#DejaVuSans-31"/>
        <use xlink:href="#DejaVuSans-2e" x="63.623047"/>
        <use xlink:href="#DejaVuSans-30" x="95.410156"/>
       </g>
      </g>
     </g>
     <g id="text_31">
      <!-- Feature 2 functional -->
      <g transform="translate(331.017188 171.326563) rotate(-90) scale(0.1 -0.1)">
       <use xlink:href="#DejaVuSans-46"/>
       <use xlink:href="#DejaVuSans-65" x="52.019531"/>
       <use xlink:href="#DejaVuSans-61" x="113.542969"/>
       <use xlink:href="#DejaVuSans-74" x="174.822266"/>
       <use xlink:href="#DejaVuSans-75" x="214.03125"/>
       <use xlink:href="#DejaVuSans-72" x="277.410156"/>
       <use xlink:href="#DejaVuSans-65" x="316.273438"/>
       <use xlink:href="#DejaVuSans-20" x="377.796875"/>
       <use xlink:href="#DejaVuSans-32" x="409.583984"/>
       <use xlink:href="#DejaVuSans-20" x="473.207031"/>
       <use xlink:href="#DejaVuSans-66" x="504.994141"/>
       <use xlink:href="#DejaVuSans-75" x="540.199219"/>
       <use xlink:href="#DejaVuSans-6e" x="603.578125"/>
       <use xlink:href="#DejaVuSans-63" x="666.957031"/>
       <use xlink:href="#DejaVuSans-74" x="721.9375"/>
       <use xlink:href="#DejaVuSans-69" x="761.146484"/>
       <use xlink:href="#DejaVuSans-6f" x="788.929688"/>
       <use xlink:href="#DejaVuSans-6e" x="850.111328"/>
       <use xlink:href="#DejaVuSans-61" x="913.490234"/>
       <use xlink:href="#DejaVuSans-6c" x="974.769531"/>
      </g>
     </g>
    </g>
    <g id="line2d_31">
     <path d="M 370.145455 213.6 
L 372.195041 213.467741 
L 374.244628 213.321644 
L 376.294215 213.160286 
L 378.343802 212.982104 
L 380.393388 212.785381 
L 382.442975 212.568234 
L 384.492562 212.3286 
L 386.542149 212.064218 
L 388.591736 211.772616 
L 390.641322 211.451091 
L 392.690909 211.096698 
L 394.740496 210.706224 
L 396.790083 210.27618 
L 398.839669 209.802773 
L 400.889256 209.281899 
L 402.938843 208.70912 
L 404.98843 208.079653 
L 407.038017 207.388359 
L 409.087603 206.62973 
L 411.13719 205.797891 
L 413.186777 204.886595 
L 415.236364 203.889234 
L 417.28595 202.798855 
L 419.335537 201.608186 
L 421.385124 200.309672 
L 423.434711 198.895529 
L 425.484298 197.357811 
L 427.533884 195.688492 
L 429.583471 193.879571 
L 431.633058 191.923198 
L 433.682645 189.811815 
L 435.732231 187.538327 
L 437.781818 185.096286 
L 439.831405 182.480098 
L 441.880992 179.685245 
L 443.930579 176.708513 
L 445.980165 173.548229 
L 448.029752 170.204492 
L 450.079339 166.679386 
L 452.128926 162.977176 
L 454.178512 159.104451 
L 456.228099 155.070239 
L 458.277686 150.886041 
L 460.327273 146.565813 
L 462.37686 142.125854 
L 464.426446 137.584631 
L 466.476033 132.962511 
L 468.52562 128.281429 
L 470.575207 123.564488 
L 472.624793 118.835512 
L 474.67438 114.118571 
L 476.723967 109.437489 
L 478.773554 104.815369 
L 480.82314 100.274146 
L 482.872727 95.834187 
L 484.922314 91.513959 
L 486.971901 87.329761 
L 489.021488 83.295549 
L 491.071074 79.422824 
L 493.120661 75.720614 
L 495.170248 72.195508 
L 497.219835 68.851771 
L 499.269421 65.691487 
L 501.319008 62.714755 
L 503.368595 59.919902 
L 505.418182 57.303714 
L 507.467769 54.861673 
L 509.517355 52.588185 
L 511.566942 50.476802 
L 513.616529 48.520429 
L 515.666116 46.711508 
L 517.715702 45.042189 
L 519.765289 43.504471 
L 521.814876 42.090328 
L 523.864463 40.791814 
L 525.91405 39.601145 
L 527.963636 38.510766 
L 530.013223 37.513405 
L 532.06281 36.602109 
L 534.112397 35.77027 
L 536.161983 35.011641 
L 538.21157 34.320347 
L 540.261157 33.69088 
L 542.310744 33.118101 
L 544.360331 32.597227 
L 546.409917 32.12382 
L 548.459504 31.693776 
L 550.509091 31.303302 
L 552.558678 30.948909 
L 554.608264 30.627384 
L 556.657851 30.335782 
L 558.707438 30.0714 
L 560.757025 29.831766 
L 562.806612 29.614619 
L 564.856198 29.417896 
L 566.905785 29.239714 
L 568.955372 29.078356 
L 571.004959 28.932259 
L 573.054545 28.8 
" clip-path="url(#pcde71d86a3)" style="fill: none; stroke-dasharray: 1.5,2.475; stroke-dashoffset: 0; stroke: #440154; stroke-width: 1.5"/>
    </g>
    <g id="line2d_32">
     <path d="M 370.145455 213.6 
L 372.195041 213.498425 
L 374.244628 213.371005 
L 376.294215 213.212044 
L 378.343802 213.014833 
L 380.393388 212.771528 
L 382.442975 212.47303 
L 384.492562 212.10887 
L 386.542149 211.667101 
L 388.591736 211.134212 
L 390.641322 210.495059 
L 392.690909 209.732827 
L 394.740496 208.829034 
L 396.790083 207.763579 
L 398.839669 206.514845 
L 400.889256 205.059874 
L 402.938843 203.374604 
L 404.98843 201.43419 
L 407.038017 199.213409 
L 409.087603 196.68715 
L 411.13719 193.830984 
L 413.186777 190.621824 
L 415.236364 187.038648 
L 417.28595 183.063292 
L 419.335537 178.681286 
L 421.385124 173.882709 
L 423.434711 168.663053 
L 425.484298 163.024053 
L 427.533884 156.974464 
L 429.583471 150.530741 
L 431.633058 143.717602 
L 433.682645 136.568427 
L 435.732231 129.125473 
L 437.781818 121.439876 
L 439.831405 113.571413 
L 441.880992 105.588014 
L 443.930579 97.565019 
L 445.980165 89.584167 
L 448.029752 81.732354 
L 450.079339 74.100159 
L 452.128926 66.780172 
L 454.178512 59.86518 
L 456.228099 53.446238 
L 458.277686 47.610696 
L 460.327273 42.440234 
L 462.37686 38.00896 
L 464.426446 34.381653 
L 466.476033 31.612182 
L 468.52562 29.74218 
L 470.575207 28.8 
L 472.624793 28.8 
L 474.67438 29.74218 
L 476.723967 31.612182 
L 478.773554 34.381653 
L 480.82314 38.00896 
L 482.872727 42.440234 
L 484.922314 47.610696 
L 486.971901 53.446238 
L 489.021488 59.86518 
L 491.071074 66.780172 
L 493.120661 74.100159 
L 495.170248 81.732354 
L 497.219835 89.584167 
L 499.269421 97.565019 
L 501.319008 105.588014 
L 503.368595 113.571413 
L 505.418182 121.439876 
L 507.467769 129.125473 
L 509.517355 136.568427 
L 511.566942 143.717602 
L 513.616529 150.530741 
L 515.666116 156.974464 
L 517.715702 163.024053 
L 519.765289 168.663053 
L 521.814876 173.882709 
L 523.864463 178.681286 
L 525.91405 183.063292 
L 527.963636 187.038648 
L 530.013223 190.621824 
L 532.06281 193.830984 
L 534.112397 196.68715 
L 536.161983 199.213409 
L 538.21157 201.43419 
L 540.261157 203.374604 
L 542.310744 205.059874 
L 544.360331 206.514845 
L 546.409917 207.763579 
L 548.459504 208.829034 
L 550.509091 209.732827 
L 552.558678 210.495059 
L 554.608264 211.134212 
L 556.657851 211.667101 
L 558.707438 212.10887 
L 560.757025 212.47303 
L 562.806612 212.771528 
L 564.856198 213.014833 
L 566.905785 213.212044 
L 568.955372 213.371005 
L 571.004959 213.498425 
L 573.054545 213.6 
" clip-path="url(#pcde71d86a3)" style="fill: none; stroke-dasharray: 5.55,2.4; stroke-dashoffset: 0; stroke: #21918c; stroke-width: 1.5"/>
    </g>
    <g id="line2d_33">
     <path d="M 370.145455 213.6 
L 372.195041 113.635395 
L 374.244628 100.867483 
L 376.294215 93.38834 
L 378.343802 88.078912 
L 380.393388 83.959386 
L 382.442975 80.592866 
L 384.492562 77.74615 
L 386.542149 75.279984 
L 388.591736 73.104516 
L 390.641322 71.158385 
L 392.690909 69.397815 
L 394.740496 67.790482 
L 396.790083 66.311831 
L 398.839669 64.942778 
L 400.889256 63.668191 
L 402.938843 62.475871 
L 404.98843 61.355838 
L 407.038017 60.299827 
L 409.087603 59.300912 
L 411.13719 58.353235 
L 413.186777 57.451794 
L 415.236364 56.592288 
L 417.28595 55.770987 
L 419.335537 54.98464 
L 421.385124 54.230391 
L 423.434711 53.505723 
L 425.484298 52.808403 
L 427.533884 52.136442 
L 429.583471 51.48806 
L 431.633058 50.861658 
L 433.682645 50.255794 
L 435.732231 49.669164 
L 437.781818 49.100585 
L 439.831405 48.548979 
L 441.880992 48.013361 
L 443.930579 47.492832 
L 445.980165 46.986563 
L 448.029752 46.493796 
L 450.079339 46.013827 
L 452.128926 45.546009 
L 454.178512 45.089742 
L 456.228099 44.64447 
L 458.277686 44.209674 
L 460.327273 43.784874 
L 462.37686 43.369619 
L 464.426446 42.963491 
L 466.476033 42.566096 
L 468.52562 42.177068 
L 470.575207 41.796061 
L 472.624793 41.42275 
L 474.67438 41.056832 
L 476.723967 40.698019 
L 478.773554 40.34604 
L 480.82314 40.00064 
L 482.872727 39.661577 
L 484.922314 39.328624 
L 486.971901 39.001563 
L 489.021488 38.68019 
L 491.071074 38.364311 
L 493.120661 38.05374 
L 495.170248 37.748303 
L 497.219835 37.447831 
L 499.269421 37.152168 
L 501.319008 36.86116 
L 503.368595 36.574664 
L 505.418182 36.292542 
L 507.467769 36.014662 
L 509.517355 35.740898 
L 511.566942 35.471132 
L 513.616529 35.205246 
L 515.666116 34.943132 
L 517.715702 34.684684 
L 519.765289 34.4298 
L 521.814876 34.178384 
L 523.864463 33.930343 
L 525.91405 33.685587 
L 527.963636 33.44403 
L 530.013223 33.20559 
L 532.06281 32.970187 
L 534.112397 32.737745 
L 536.161983 32.508191 
L 538.21157 32.281453 
L 540.261157 32.057464 
L 542.310744 31.836157 
L 544.360331 31.617469 
L 546.409917 31.401338 
L 548.459504 31.187706 
L 550.509091 30.976516 
L 552.558678 30.767712 
L 554.608264 30.56124 
L 556.657851 30.35705 
L 558.707438 30.155092 
L 560.757025 29.955317 
L 562.806612 29.757678 
L 564.856198 29.562131 
L 566.905785 29.368631 
L 568.955372 29.177137 
L 571.004959 28.987606 
L 573.054545 28.8 
" clip-path="url(#pcde71d86a3)" style="fill: none; stroke: #fde725; stroke-width: 1.5; stroke-linecap: square"/>
    </g>
    <g id="patch_10">
     <path d="M 360 213.6 
L 360 28.8 
" style="fill: none; stroke: #000000; stroke-width: 0.8; stroke-linejoin: miter; stroke-linecap: square"/>
    </g>
    <g id="patch_11">
     <path d="M 583.2 213.6 
L 583.2 28.8 
" style="fill: none; stroke: #000000; stroke-width: 0.8; stroke-linejoin: miter; stroke-linecap: square"/>
    </g>
    <g id="patch_12">
     <path d="M 360 213.6 
L 583.2 213.6 
" style="fill: none; stroke: #000000; stroke-width: 0.8; stroke-linejoin: miter; stroke-linecap: square"/>
    </g>
    <g id="patch_13">
     <path d="M 360 28.8 
L 583.2 28.8 
" style="fill: none; stroke: #000000; stroke-width: 0.8; stroke-linejoin: miter; stroke-linecap: square"/>
    </g>
   </g>
   <g id="text_32">
    <!-- True Functionals -->
    <g transform="translate(275.365313 13.918125) scale(0.12 -0.12)">
     <use xlink:href="#DejaVuSans-54"/>
     <use xlink:href="#DejaVuSans-72" x="46.333984"/>
     <use xlink:href="#DejaVuSans-75" x="87.447266"/>
     <use xlink:href="#DejaVuSans-65" x="150.826172"/>
     <use xlink:href="#DejaVuSans-20" x="212.349609"/>
     <use xlink:href="#DejaVuSans-46" x="244.136719"/>
     <use xlink:href="#DejaVuSans-75" x="296.15625"/>
     <use xlink:href="#DejaVuSans-6e" x="359.535156"/>
     <use xlink:href="#DejaVuSans-63" x="422.914062"/>
     <use xlink:href="#DejaVuSans-74" x="477.894531"/>
     <use xlink:href="#DejaVuSans-69" x="517.103516"/>
     <use xlink:href="#DejaVuSans-6f" x="544.886719"/>
     <use xlink:href="#DejaVuSans-6e" x="606.068359"/>
     <use xlink:href="#DejaVuSans-61" x="669.447266"/>
     <use xlink:href="#DejaVuSans-6c" x="730.726562"/>
     <use xlink:href="#DejaVuSans-73" x="758.509766"/>
    </g>
   </g>
  </g>
  <g id="subfigure_2">
   <g id="patch_14">
    <path d="M 0 504 
L 648 504 
L 648 264 
L 0 264 
L 0 504 
z
" style="fill: none"/>
   </g>
   <g id="axes_3">
    <g id="patch_15">
     <path d="M 81 477.6 
L 304.2 477.6 
L 304.2 292.8 
L 81 292.8 
z
" style="fill: #ffffff"/>
    </g>
    <g id="matplotlib.axis_5">
     <g id="xtick_13">
      <g id="line2d_34">
       <g>
        <use xlink:href="#me57c8a4e1c" x="91.145455" y="477.6" style="stroke: #000000; stroke-width: 0.8"/>
       </g>
      </g>
      <g id="text_33">
       <!-- 0 -->
       <g transform="translate(87.964205 492.198437) scale(0.1 -0.1)">
        <use xlink:href="#DejaVuSans-30"/>
       </g>
      </g>
     </g>
     <g id="xtick_14">
      <g id="line2d_35">
       <g>
        <use xlink:href="#me57c8a4e1c" x="128.038017" y="477.6" style="stroke: #000000; stroke-width: 0.8"/>
       </g>
      </g>
      <g id="text_34">
       <!-- 2 -->
       <g transform="translate(124.856767 492.198437) scale(0.1 -0.1)">
        <use xlink:href="#DejaVuSans-32"/>
       </g>
      </g>
     </g>
     <g id="xtick_15">
      <g id="line2d_36">
       <g>
        <use xlink:href="#me57c8a4e1c" x="164.930579" y="477.6" style="stroke: #000000; stroke-width: 0.8"/>
       </g>
      </g>
      <g id="text_35">
       <!-- 4 -->
       <g transform="translate(161.749329 492.198437) scale(0.1 -0.1)">
        <use xlink:href="#DejaVuSans-34"/>
       </g>
      </g>
     </g>
     <g id="xtick_16">
      <g id="line2d_37">
       <g>
        <use xlink:href="#me57c8a4e1c" x="201.82314" y="477.6" style="stroke: #000000; stroke-width: 0.8"/>
       </g>
      </g>
      <g id="text_36">
       <!-- 6 -->
       <g transform="translate(198.64189 492.198437) scale(0.1 -0.1)">
        <use xlink:href="#DejaVuSans-36"/>
       </g>
      </g>
     </g>
     <g id="xtick_17">
      <g id="line2d_38">
       <g>
        <use xlink:href="#me57c8a4e1c" x="238.715702" y="477.6" style="stroke: #000000; stroke-width: 0.8"/>
       </g>
      </g>
      <g id="text_37">
       <!-- 8 -->
       <g transform="translate(235.534452 492.198437) scale(0.1 -0.1)">
        <use xlink:href="#DejaVuSans-38"/>
       </g>
      </g>
     </g>
     <g id="xtick_18">
      <g id="line2d_39">
       <g>
        <use xlink:href="#me57c8a4e1c" x="275.608264" y="477.6" style="stroke: #000000; stroke-width: 0.8"/>
       </g>
      </g>
      <g id="text_38">
       <!-- 10 -->
       <g transform="translate(269.245764 492.198437) scale(0.1 -0.1)">
        <use xlink:href="#DejaVuSans-31"/>
        <use xlink:href="#DejaVuSans-30" x="63.623047"/>
       </g>
      </g>
     </g>
     <g id="text_39">
      <!-- Time -->
      <g transform="translate(180.366406 505.876562) scale(0.1 -0.1)">
       <use xlink:href="#DejaVuSans-54"/>
       <use xlink:href="#DejaVuSans-69" x="57.958984"/>
       <use xlink:href="#DejaVuSans-6d" x="85.742188"/>
       <use xlink:href="#DejaVuSans-65" x="183.154297"/>
      </g>
     </g>
    </g>
    <g id="matplotlib.axis_6">
     <g id="ytick_13">
      <g id="line2d_40">
       <g>
        <use xlink:href="#mb7090e00b9" x="81" y="469.132255" style="stroke: #000000; stroke-width: 0.8"/>
       </g>
      </g>
      <g id="text_40">
       <!-- 0.0 -->
       <g transform="translate(58.096875 472.931474) scale(0.1 -0.1)">
        <use xlink:href="#DejaVuSans-30"/>
        <use xlink:href="#DejaVuSans-2e" x="63.623047"/>
        <use xlink:href="#DejaVuSans-30" x="95.410156"/>
       </g>
      </g>
     </g>
     <g id="ytick_14">
      <g id="line2d_41">
       <g>
        <use xlink:href="#mb7090e00b9" x="81" y="435.486055" style="stroke: #000000; stroke-width: 0.8"/>
       </g>
      </g>
      <g id="text_41">
       <!-- 0.2 -->
       <g transform="translate(58.096875 439.285274) scale(0.1 -0.1)">
        <use xlink:href="#DejaVuSans-30"/>
        <use xlink:href="#DejaVuSans-2e" x="63.623047"/>
        <use xlink:href="#DejaVuSans-32" x="95.410156"/>
       </g>
      </g>
     </g>
     <g id="ytick_15">
      <g id="line2d_42">
       <g>
        <use xlink:href="#mb7090e00b9" x="81" y="401.839856" style="stroke: #000000; stroke-width: 0.8"/>
       </g>
      </g>
      <g id="text_42">
       <!-- 0.4 -->
       <g transform="translate(58.096875 405.639074) scale(0.1 -0.1)">
        <use xlink:href="#DejaVuSans-30"/>
        <use xlink:href="#DejaVuSans-2e" x="63.623047"/>
        <use xlink:href="#DejaVuSans-34" x="95.410156"/>
       </g>
      </g>
     </g>
     <g id="ytick_16">
      <g id="line2d_43">
       <g>
        <use xlink:href="#mb7090e00b9" x="81" y="368.193656" style="stroke: #000000; stroke-width: 0.8"/>
       </g>
      </g>
      <g id="text_43">
       <!-- 0.6 -->
       <g transform="translate(58.096875 371.992874) scale(0.1 -0.1)">
        <use xlink:href="#DejaVuSans-30"/>
        <use xlink:href="#DejaVuSans-2e" x="63.623047"/>
        <use xlink:href="#DejaVuSans-36" x="95.410156"/>
       </g>
      </g>
     </g>
     <g id="ytick_17">
      <g id="line2d_44">
       <g>
        <use xlink:href="#mb7090e00b9" x="81" y="334.547456" style="stroke: #000000; stroke-width: 0.8"/>
       </g>
      </g>
      <g id="text_44">
       <!-- 0.8 -->
       <g transform="translate(58.096875 338.346675) scale(0.1 -0.1)">
        <use xlink:href="#DejaVuSans-30"/>
        <use xlink:href="#DejaVuSans-2e" x="63.623047"/>
        <use xlink:href="#DejaVuSans-38" x="95.410156"/>
       </g>
      </g>
     </g>
     <g id="ytick_18">
      <g id="line2d_45">
       <g>
        <use xlink:href="#mb7090e00b9" x="81" y="300.901256" style="stroke: #000000; stroke-width: 0.8"/>
       </g>
      </g>
      <g id="text_45">
       <!-- 1.0 -->
       <g transform="translate(58.096875 304.700475) scale(0.1 -0.1)">
        <use xlink:href="#DejaVuSans-31"/>
        <use xlink:href="#DejaVuSans-2e" x="63.623047"/>
        <use xlink:href="#DejaVuSans-30" x="95.410156"/>
       </g>
      </g>
     </g>
     <g id="text_46">
      <!-- Feature 1 functional -->
      <g transform="translate(52.017187 435.326562) rotate(-90) scale(0.1 -0.1)">
       <use xlink:href="#DejaVuSans-46"/>
       <use xlink:href="#DejaVuSans-65" x="52.019531"/>
       <use xlink:href="#DejaVuSans-61" x="113.542969"/>
       <use xlink:href="#DejaVuSans-74" x="174.822266"/>
       <use xlink:href="#DejaVuSans-75" x="214.03125"/>
       <use xlink:href="#DejaVuSans-72" x="277.410156"/>
       <use xlink:href="#DejaVuSans-65" x="316.273438"/>
       <use xlink:href="#DejaVuSans-20" x="377.796875"/>
       <use xlink:href="#DejaVuSans-31" x="409.583984"/>
       <use xlink:href="#DejaVuSans-20" x="473.207031"/>
       <use xlink:href="#DejaVuSans-66" x="504.994141"/>
       <use xlink:href="#DejaVuSans-75" x="540.199219"/>
       <use xlink:href="#DejaVuSans-6e" x="603.578125"/>
       <use xlink:href="#DejaVuSans-63" x="666.957031"/>
       <use xlink:href="#DejaVuSans-74" x="721.9375"/>
       <use xlink:href="#DejaVuSans-69" x="761.146484"/>
       <use xlink:href="#DejaVuSans-6f" x="788.929688"/>
       <use xlink:href="#DejaVuSans-6e" x="850.111328"/>
       <use xlink:href="#DejaVuSans-61" x="913.490234"/>
       <use xlink:href="#DejaVuSans-6c" x="974.769531"/>
      </g>
     </g>
    </g>
    <g id="line2d_46">
     <path d="M 91.145455 301.2 
L 93.195041 311.198386 
L 95.244628 320.722622 
L 97.294215 329.772708 
L 99.343802 338.348644 
L 101.393388 346.45043 
L 103.442975 354.078065 
L 105.492562 361.231551 
L 107.542149 367.910886 
L 109.591736 374.116071 
L 111.641322 379.847106 
L 113.690909 385.103991 
L 115.740496 389.886726 
L 117.790083 394.195311 
L 119.839669 398.029746 
L 121.889256 401.39003 
L 123.938843 404.276165 
L 125.98843 406.688149 
L 128.038017 408.625983 
L 130.087603 410.089667 
L 132.13719 411.08877 
L 134.186777 411.939068 
L 136.236364 412.793666 
L 138.28595 413.652562 
L 140.335537 414.515758 
L 142.385124 415.383253 
L 144.434711 416.255047 
L 146.484298 417.13114 
L 148.533884 418.011532 
L 150.583471 418.896224 
L 152.633058 419.785214 
L 154.682645 420.678504 
L 156.732231 421.576093 
L 158.781818 422.477981 
L 160.831405 423.384168 
L 162.880992 424.294655 
L 164.930579 425.20944 
L 166.980165 426.128525 
L 169.029752 427.051909 
L 171.079339 427.979592 
L 173.128926 428.908675 
L 175.178512 429.812349 
L 177.228099 430.68409 
L 179.277686 431.523899 
L 181.327273 432.331776 
L 183.37686 433.107721 
L 185.426446 433.851734 
L 187.476033 434.563815 
L 189.52562 435.243964 
L 191.575207 435.892181 
L 193.624793 436.508466 
L 195.67438 437.092819 
L 197.723967 437.64524 
L 199.773554 438.165729 
L 201.82314 438.654286 
L 203.872727 439.11091 
L 205.922314 439.535603 
L 207.971901 439.928364 
L 210.021488 440.289193 
L 212.071074 440.618089 
L 214.120661 440.917701 
L 216.170248 441.198907 
L 218.219835 441.462885 
L 220.269421 441.709635 
L 222.319008 441.939156 
L 224.368595 442.151449 
L 226.418182 442.346514 
L 228.467769 442.52435 
L 230.517355 442.684958 
L 232.566942 442.828337 
L 234.616529 442.954488 
L 236.666116 443.063411 
L 238.715702 443.155105 
L 240.765289 443.22957 
L 242.814876 443.286808 
L 244.864463 443.326817 
L 246.91405 443.349597 
L 248.963636 443.355149 
L 251.013223 443.343473 
L 253.06281 443.314568 
L 255.112397 443.280429 
L 257.161983 443.265794 
L 259.21157 443.271414 
L 261.261157 443.297287 
L 263.310744 443.343413 
L 265.360331 443.409794 
L 267.409917 443.496429 
L 269.459504 443.603317 
L 271.509091 443.730459 
L 273.558678 443.877856 
L 275.608264 444.045506 
L 277.657851 444.233409 
L 279.707438 444.441567 
L 281.757025 444.669978 
L 283.806612 444.918644 
L 285.856198 445.187563 
L 287.905785 445.476736 
L 289.955372 445.786163 
L 292.004959 446.115844 
L 294.054545 446.465778 
" clip-path="url(#p98c4e993f7)" style="fill: none; stroke-dasharray: 1.5,2.475; stroke-dashoffset: 0; stroke: #440154; stroke-width: 1.5"/>
    </g>
    <g id="line2d_47">
     <path d="M 91.145455 312.195803 
L 93.195041 312.39487 
L 95.244628 312.604587 
L 97.294215 312.824954 
L 99.343802 313.05597 
L 101.393388 313.297636 
L 103.442975 313.549952 
L 105.492562 313.812918 
L 107.542149 314.086533 
L 109.591736 314.370799 
L 111.641322 314.665714 
L 113.690909 314.971278 
L 115.740496 315.287493 
L 117.790083 315.614357 
L 119.839669 315.951871 
L 121.889256 316.300035 
L 123.938843 316.658848 
L 125.98843 317.028312 
L 128.038017 317.408425 
L 130.087603 317.799187 
L 132.13719 318.203048 
L 134.186777 318.700786 
L 136.236364 319.331569 
L 138.28595 320.095397 
L 140.335537 320.992269 
L 142.385124 322.022185 
L 144.434711 323.185146 
L 146.484298 324.481151 
L 148.533884 325.9102 
L 150.583471 327.472294 
L 152.633058 329.167433 
L 154.682645 330.995616 
L 156.732231 332.956843 
L 158.781818 335.051115 
L 160.831405 337.278431 
L 162.880992 339.638792 
L 164.930579 342.132197 
L 166.980165 344.758646 
L 169.029752 347.51814 
L 171.079339 350.410678 
L 173.128926 353.427004 
L 175.178512 356.481484 
L 177.228099 359.553291 
L 179.277686 362.642424 
L 181.327273 365.748884 
L 183.37686 368.872669 
L 185.426446 372.013781 
L 187.476033 375.172218 
L 189.52562 378.347982 
L 191.575207 381.541072 
L 193.624793 384.751489 
L 195.67438 387.979231 
L 197.723967 391.2243 
L 199.773554 394.486695 
L 201.82314 397.766416 
L 203.872727 401.063463 
L 205.922314 404.377836 
L 207.971901 407.709536 
L 210.021488 411.058561 
L 212.071074 414.424913 
L 214.120661 417.776115 
L 216.170248 420.978656 
L 218.219835 424.018101 
L 220.269421 426.894451 
L 222.319008 429.607705 
L 224.368595 432.157864 
L 226.418182 434.544928 
L 228.467769 436.768896 
L 230.517355 438.829769 
L 232.566942 440.727547 
L 234.616529 442.462229 
L 236.666116 444.033816 
L 238.715702 445.442308 
L 240.765289 446.687704 
L 242.814876 447.770005 
L 244.864463 448.689211 
L 246.91405 449.445321 
L 248.963636 450.038336 
L 251.013223 450.468255 
L 253.06281 450.735079 
L 255.112397 450.894397 
L 257.161983 451.060859 
L 259.21157 451.23794 
L 261.261157 451.425641 
L 263.310744 451.62396 
L 265.360331 451.832899 
L 267.409917 452.052456 
L 269.459504 452.282633 
L 271.509091 452.523429 
L 273.558678 452.774844 
L 275.608264 453.036878 
L 277.657851 453.309531 
L 279.707438 453.592803 
L 281.757025 453.886694 
L 283.806612 454.191204 
L 285.856198 454.506334 
L 287.905785 454.832082 
L 289.955372 455.16845 
L 292.004959 455.515436 
L 294.054545 455.873042 
" clip-path="url(#p98c4e993f7)" style="fill: none; stroke-dasharray: 5.55,2.4; stroke-dashoffset: 0; stroke: #21918c; stroke-width: 1.5"/>
    </g>
    <g id="line2d_48">
     <path d="M 91.145455 317.39955 
L 93.195041 316.847913 
L 95.244628 316.451912 
L 97.294215 316.211547 
L 99.343802 316.126818 
L 101.393388 316.197725 
L 103.442975 316.424267 
L 105.492562 316.806446 
L 107.542149 317.34426 
L 109.591736 318.037711 
L 111.641322 318.886797 
L 113.690909 319.891519 
L 115.740496 321.051877 
L 117.790083 322.367871 
L 119.839669 323.839501 
L 121.889256 325.466767 
L 123.938843 327.249668 
L 125.98843 329.188206 
L 128.038017 331.282379 
L 130.087603 333.532188 
L 132.13719 335.9395 
L 134.186777 338.565898 
L 136.236364 341.441241 
L 138.28595 344.565529 
L 140.335537 347.938762 
L 142.385124 351.560941 
L 144.434711 355.432066 
L 146.484298 359.552135 
L 148.533884 363.92115 
L 150.583471 368.53911 
L 152.633058 373.406015 
L 154.682645 378.521866 
L 156.732231 383.886662 
L 158.781818 389.500403 
L 160.831405 395.363089 
L 162.880992 401.474721 
L 164.930579 407.835298 
L 166.980165 414.444821 
L 169.029752 421.303288 
L 171.079339 428.410701 
L 173.128926 435.687427 
L 175.178512 442.39687 
L 177.228099 448.359856 
L 179.277686 453.576387 
L 181.327273 458.046462 
L 183.37686 461.770082 
L 185.426446 464.747245 
L 187.476033 466.977952 
L 189.52562 468.462204 
L 191.575207 469.2 
L 193.624793 469.19134 
L 195.67438 468.436224 
L 197.723967 466.934653 
L 199.773554 464.686625 
L 201.82314 461.692142 
L 203.872727 457.951203 
L 205.922314 453.463808 
L 207.971901 448.229957 
L 210.021488 442.24965 
L 212.071074 435.522888 
L 214.120661 428.229377 
L 216.170248 421.107916 
L 218.219835 414.238376 
L 220.269421 407.620755 
L 222.319008 401.255053 
L 224.368595 395.141272 
L 226.418182 389.279411 
L 228.467769 383.66947 
L 230.517355 378.311448 
L 232.566942 373.205347 
L 234.616529 368.351165 
L 236.666116 363.748903 
L 238.715702 359.398561 
L 240.765289 355.30014 
L 242.814876 351.453638 
L 244.864463 347.859055 
L 246.91405 344.516393 
L 248.963636 341.425651 
L 251.013223 338.586829 
L 253.06281 335.999926 
L 255.112397 333.634313 
L 257.161983 331.426815 
L 259.21157 329.375517 
L 261.261157 327.48042 
L 263.310744 325.741523 
L 265.360331 324.158826 
L 267.409917 322.732329 
L 269.459504 321.462033 
L 271.509091 320.347937 
L 273.558678 319.390042 
L 275.608264 318.588347 
L 277.657851 317.942852 
L 279.707438 317.453557 
L 281.757025 317.120463 
L 283.806612 316.943569 
L 285.856198 316.922876 
L 287.905785 317.058382 
L 289.955372 317.350089 
L 292.004959 317.797997 
L 294.054545 318.402104 
" clip-path="url(#p98c4e993f7)" style="fill: none; stroke: #fde725; stroke-width: 1.5; stroke-linecap: square"/>
    </g>
    <g id="patch_16">
     <path d="M 81 477.6 
L 81 292.8 
" style="fill: none; stroke: #000000; stroke-width: 0.8; stroke-linejoin: miter; stroke-linecap: square"/>
    </g>
    <g id="patch_17">
     <path d="M 304.2 477.6 
L 304.2 292.8 
" style="fill: none; stroke: #000000; stroke-width: 0.8; stroke-linejoin: miter; stroke-linecap: square"/>
    </g>
    <g id="patch_18">
     <path d="M 81 477.6 
L 304.2 477.6 
" style="fill: none; stroke: #000000; stroke-width: 0.8; stroke-linejoin: miter; stroke-linecap: square"/>
    </g>
    <g id="patch_19">
     <path d="M 81 292.8 
L 304.2 292.8 
" style="fill: none; stroke: #000000; stroke-width: 0.8; stroke-linejoin: miter; stroke-linecap: square"/>
    </g>
    <g id="legend_2">
     <g id="patch_20">
      <path d="M 88 472.6 
L 155.848437 472.6 
Q 157.848437 472.6 157.848437 470.6 
L 157.848437 427.565625 
Q 157.848437 425.565625 155.848437 425.565625 
L 88 425.565625 
Q 86 425.565625 86 427.565625 
L 86 470.6 
Q 86 472.6 88 472.6 
z
" style="fill: #ffffff; opacity: 0.8; stroke: #cccccc; stroke-linejoin: miter"/>
     </g>
     <g id="line2d_49">
      <path d="M 90 433.664062 
L 100 433.664062 
L 110 433.664062 
" style="fill: none; stroke-dasharray: 1.5,2.475; stroke-dashoffset: 0; stroke: #440154; stroke-width: 1.5"/>
     </g>
     <g id="text_47">
      <!-- Class 1 -->
      <g transform="translate(118 437.164062) scale(0.1 -0.1)">
       <use xlink:href="#DejaVuSans-43"/>
       <use xlink:href="#DejaVuSans-6c" x="69.824219"/>
       <use xlink:href="#DejaVuSans-61" x="97.607422"/>
       <use xlink:href="#DejaVuSans-73" x="158.886719"/>
       <use xlink:href="#DejaVuSans-73" x="210.986328"/>
       <use xlink:href="#DejaVuSans-20" x="263.085938"/>
       <use xlink:href="#DejaVuSans-31" x="294.873047"/>
      </g>
     </g>
     <g id="line2d_50">
      <path d="M 90 448.342187 
L 100 448.342187 
L 110 448.342187 
" style="fill: none; stroke-dasharray: 5.55,2.4; stroke-dashoffset: 0; stroke: #21918c; stroke-width: 1.5"/>
     </g>
     <g id="text_48">
      <!-- Class 2 -->
      <g transform="translate(118 451.842187) scale(0.1 -0.1)">
       <use xlink:href="#DejaVuSans-43"/>
       <use xlink:href="#DejaVuSans-6c" x="69.824219"/>
       <use xlink:href="#DejaVuSans-61" x="97.607422"/>
       <use xlink:href="#DejaVuSans-73" x="158.886719"/>
       <use xlink:href="#DejaVuSans-73" x="210.986328"/>
       <use xlink:href="#DejaVuSans-20" x="263.085938"/>
       <use xlink:href="#DejaVuSans-32" x="294.873047"/>
      </g>
     </g>
     <g id="line2d_51">
      <path d="M 90 463.020312 
L 100 463.020312 
L 110 463.020312 
" style="fill: none; stroke: #fde725; stroke-width: 1.5; stroke-linecap: square"/>
     </g>
     <g id="text_49">
      <!-- Class 3 -->
      <g transform="translate(118 466.520312) scale(0.1 -0.1)">
       <use xlink:href="#DejaVuSans-43"/>
       <use xlink:href="#DejaVuSans-6c" x="69.824219"/>
       <use xlink:href="#DejaVuSans-61" x="97.607422"/>
       <use xlink:href="#DejaVuSans-73" x="158.886719"/>
       <use xlink:href="#DejaVuSans-73" x="210.986328"/>
       <use xlink:href="#DejaVuSans-20" x="263.085938"/>
       <use xlink:href="#DejaVuSans-33" x="294.873047"/>
      </g>
     </g>
    </g>
   </g>
   <g id="axes_4">
    <g id="patch_21">
     <path d="M 360 477.6 
L 583.2 477.6 
L 583.2 292.8 
L 360 292.8 
z
" style="fill: #ffffff"/>
    </g>
    <g id="matplotlib.axis_7">
     <g id="xtick_19">
      <g id="line2d_52">
       <g>
        <use xlink:href="#me57c8a4e1c" x="370.145455" y="477.6" style="stroke: #000000; stroke-width: 0.8"/>
       </g>
      </g>
      <g id="text_50">
       <!-- 0 -->
       <g transform="translate(366.964205 492.198437) scale(0.1 -0.1)">
        <use xlink:href="#DejaVuSans-30"/>
       </g>
      </g>
     </g>
     <g id="xtick_20">
      <g id="line2d_53">
       <g>
        <use xlink:href="#me57c8a4e1c" x="407.038017" y="477.6" style="stroke: #000000; stroke-width: 0.8"/>
       </g>
      </g>
      <g id="text_51">
       <!-- 2 -->
       <g transform="translate(403.856767 492.198437) scale(0.1 -0.1)">
        <use xlink:href="#DejaVuSans-32"/>
       </g>
      </g>
     </g>
     <g id="xtick_21">
      <g id="line2d_54">
       <g>
        <use xlink:href="#me57c8a4e1c" x="443.930579" y="477.6" style="stroke: #000000; stroke-width: 0.8"/>
       </g>
      </g>
      <g id="text_52">
       <!-- 4 -->
       <g transform="translate(440.749329 492.198437) scale(0.1 -0.1)">
        <use xlink:href="#DejaVuSans-34"/>
       </g>
      </g>
     </g>
     <g id="xtick_22">
      <g id="line2d_55">
       <g>
        <use xlink:href="#me57c8a4e1c" x="480.82314" y="477.6" style="stroke: #000000; stroke-width: 0.8"/>
       </g>
      </g>
      <g id="text_53">
       <!-- 6 -->
       <g transform="translate(477.64189 492.198437) scale(0.1 -0.1)">
        <use xlink:href="#DejaVuSans-36"/>
       </g>
      </g>
     </g>
     <g id="xtick_23">
      <g id="line2d_56">
       <g>
        <use xlink:href="#me57c8a4e1c" x="517.715702" y="477.6" style="stroke: #000000; stroke-width: 0.8"/>
       </g>
      </g>
      <g id="text_54">
       <!-- 8 -->
       <g transform="translate(514.534452 492.198437) scale(0.1 -0.1)">
        <use xlink:href="#DejaVuSans-38"/>
       </g>
      </g>
     </g>
     <g id="xtick_24">
      <g id="line2d_57">
       <g>
        <use xlink:href="#me57c8a4e1c" x="554.608264" y="477.6" style="stroke: #000000; stroke-width: 0.8"/>
       </g>
      </g>
      <g id="text_55">
       <!-- 10 -->
       <g transform="translate(548.245764 492.198437) scale(0.1 -0.1)">
        <use xlink:href="#DejaVuSans-31"/>
        <use xlink:href="#DejaVuSans-30" x="63.623047"/>
       </g>
      </g>
     </g>
     <g id="text_56">
      <!-- Time -->
      <g transform="translate(459.366406 505.876562) scale(0.1 -0.1)">
       <use xlink:href="#DejaVuSans-54"/>
       <use xlink:href="#DejaVuSans-69" x="57.958984"/>
       <use xlink:href="#DejaVuSans-6d" x="85.742188"/>
       <use xlink:href="#DejaVuSans-65" x="183.154297"/>
      </g>
     </g>
    </g>
    <g id="matplotlib.axis_8">
     <g id="ytick_19">
      <g id="line2d_58">
       <g>
        <use xlink:href="#mb7090e00b9" x="360" y="477.6" style="stroke: #000000; stroke-width: 0.8"/>
       </g>
      </g>
      <g id="text_57">
       <!-- 0.0 -->
       <g transform="translate(337.096875 481.399219) scale(0.1 -0.1)">
        <use xlink:href="#DejaVuSans-30"/>
        <use xlink:href="#DejaVuSans-2e" x="63.623047"/>
        <use xlink:href="#DejaVuSans-30" x="95.410156"/>
       </g>
      </g>
     </g>
     <g id="ytick_20">
      <g id="line2d_59">
       <g>
        <use xlink:href="#mb7090e00b9" x="360" y="440.64" style="stroke: #000000; stroke-width: 0.8"/>
       </g>
      </g>
      <g id="text_58">
       <!-- 0.2 -->
       <g transform="translate(337.096875 444.439219) scale(0.1 -0.1)">
        <use xlink:href="#DejaVuSans-30"/>
        <use xlink:href="#DejaVuSans-2e" x="63.623047"/>
        <use xlink:href="#DejaVuSans-32" x="95.410156"/>
       </g>
      </g>
     </g>
     <g id="ytick_21">
      <g id="line2d_60">
       <g>
        <use xlink:href="#mb7090e00b9" x="360" y="403.68" style="stroke: #000000; stroke-width: 0.8"/>
       </g>
      </g>
      <g id="text_59">
       <!-- 0.4 -->
       <g transform="translate(337.096875 407.479219) scale(0.1 -0.1)">
        <use xlink:href="#DejaVuSans-30"/>
        <use xlink:href="#DejaVuSans-2e" x="63.623047"/>
        <use xlink:href="#DejaVuSans-34" x="95.410156"/>
       </g>
      </g>
     </g>
     <g id="ytick_22">
      <g id="line2d_61">
       <g>
        <use xlink:href="#mb7090e00b9" x="360" y="366.72" style="stroke: #000000; stroke-width: 0.8"/>
       </g>
      </g>
      <g id="text_60">
       <!-- 0.6 -->
       <g transform="translate(337.096875 370.519219) scale(0.1 -0.1)">
        <use xlink:href="#DejaVuSans-30"/>
        <use xlink:href="#DejaVuSans-2e" x="63.623047"/>
        <use xlink:href="#DejaVuSans-36" x="95.410156"/>
       </g>
      </g>
     </g>
     <g id="ytick_23">
      <g id="line2d_62">
       <g>
        <use xlink:href="#mb7090e00b9" x="360" y="329.76" style="stroke: #000000; stroke-width: 0.8"/>
       </g>
      </g>
      <g id="text_61">
       <!-- 0.8 -->
       <g transform="translate(337.096875 333.559219) scale(0.1 -0.1)">
        <use xlink:href="#DejaVuSans-30"/>
        <use xlink:href="#DejaVuSans-2e" x="63.623047"/>
        <use xlink:href="#DejaVuSans-38" x="95.410156"/>
       </g>
      </g>
     </g>
     <g id="ytick_24">
      <g id="line2d_63">
       <g>
        <use xlink:href="#mb7090e00b9" x="360" y="292.8" style="stroke: #000000; stroke-width: 0.8"/>
       </g>
      </g>
      <g id="text_62">
       <!-- 1.0 -->
       <g transform="translate(337.096875 296.599219) scale(0.1 -0.1)">
        <use xlink:href="#DejaVuSans-31"/>
        <use xlink:href="#DejaVuSans-2e" x="63.623047"/>
        <use xlink:href="#DejaVuSans-30" x="95.410156"/>
       </g>
      </g>
     </g>
     <g id="text_63">
      <!-- Feature 2 functional -->
      <g transform="translate(331.017188 435.326562) rotate(-90) scale(0.1 -0.1)">
       <use xlink:href="#DejaVuSans-46"/>
       <use xlink:href="#DejaVuSans-65" x="52.019531"/>
       <use xlink:href="#DejaVuSans-61" x="113.542969"/>
       <use xlink:href="#DejaVuSans-74" x="174.822266"/>
       <use xlink:href="#DejaVuSans-75" x="214.03125"/>
       <use xlink:href="#DejaVuSans-72" x="277.410156"/>
       <use xlink:href="#DejaVuSans-65" x="316.273438"/>
       <use xlink:href="#DejaVuSans-20" x="377.796875"/>
       <use xlink:href="#DejaVuSans-32" x="409.583984"/>
       <use xlink:href="#DejaVuSans-20" x="473.207031"/>
       <use xlink:href="#DejaVuSans-66" x="504.994141"/>
       <use xlink:href="#DejaVuSans-75" x="540.199219"/>
       <use xlink:href="#DejaVuSans-6e" x="603.578125"/>
       <use xlink:href="#DejaVuSans-63" x="666.957031"/>
       <use xlink:href="#DejaVuSans-74" x="721.9375"/>
       <use xlink:href="#DejaVuSans-69" x="761.146484"/>
       <use xlink:href="#DejaVuSans-6f" x="788.929688"/>
       <use xlink:href="#DejaVuSans-6e" x="850.111328"/>
       <use xlink:href="#DejaVuSans-61" x="913.490234"/>
       <use xlink:href="#DejaVuSans-6c" x="974.769531"/>
      </g>
     </g>
    </g>
    <g id="line2d_64">
     <path d="M 370.145455 462.538304 
L 372.195041 462.405412 
L 374.244628 462.256019 
L 376.294215 462.090125 
L 378.343802 461.90773 
L 380.393388 461.708834 
L 382.442975 461.493438 
L 384.492562 461.26154 
L 386.542149 461.013142 
L 388.591736 460.748243 
L 390.641322 460.466843 
L 392.690909 460.168942 
L 394.740496 459.85454 
L 396.790083 459.523637 
L 398.839669 459.176234 
L 400.889256 458.812329 
L 402.938843 458.431924 
L 404.98843 458.035017 
L 407.038017 457.62161 
L 409.087603 457.191702 
L 411.13719 456.742674 
L 413.186777 456.188102 
L 415.236364 455.486082 
L 417.28595 454.636614 
L 419.335537 453.639699 
L 421.385124 452.495337 
L 423.434711 451.203527 
L 425.484298 449.76427 
L 427.533884 448.177565 
L 429.583471 446.443413 
L 431.633058 444.561813 
L 433.682645 442.532766 
L 435.732231 440.356271 
L 437.781818 438.032329 
L 439.831405 435.560939 
L 441.880992 432.942102 
L 443.930579 430.175817 
L 445.980165 427.262085 
L 448.029752 424.200905 
L 450.079339 420.992278 
L 452.128926 417.646575 
L 454.178512 414.259733 
L 456.228099 410.855088 
L 458.277686 407.432641 
L 460.327273 403.99239 
L 462.37686 400.534337 
L 464.426446 397.058481 
L 466.476033 393.564822 
L 468.52562 390.053361 
L 470.575207 386.524096 
L 472.624793 382.977029 
L 474.67438 379.412159 
L 476.723967 375.829486 
L 478.773554 372.22901 
L 480.82314 368.610732 
L 482.872727 364.974651 
L 484.922314 361.320766 
L 486.971901 357.649079 
L 489.021488 353.95959 
L 491.071074 350.252297 
L 493.120661 346.562079 
L 495.170248 343.032317 
L 497.219835 339.678514 
L 499.269421 336.500669 
L 501.319008 333.498782 
L 503.368595 330.672854 
L 505.418182 328.022883 
L 507.467769 325.54887 
L 509.517355 323.250816 
L 511.566942 321.128719 
L 513.616529 319.182581 
L 515.666116 317.412401 
L 517.715702 315.818179 
L 519.765289 314.399915 
L 521.814876 313.157609 
L 523.864463 312.091262 
L 525.91405 311.200872 
L 527.963636 310.486441 
L 530.013223 309.947967 
L 532.06281 309.585452 
L 534.112397 309.339754 
L 536.161983 309.088895 
L 538.21157 308.829179 
L 540.261157 308.560605 
L 542.310744 308.283174 
L 544.360331 307.996886 
L 546.409917 307.701741 
L 548.459504 307.397739 
L 550.509091 307.084879 
L 552.558678 306.763162 
L 554.608264 306.432588 
L 556.657851 306.093156 
L 558.707438 305.744867 
L 560.757025 305.387721 
L 562.806612 305.021718 
L 564.856198 304.646857 
L 566.905785 304.263139 
L 568.955372 303.870564 
L 571.004959 303.469132 
L 573.054545 303.058843 
" clip-path="url(#paa54dd309c)" style="fill: none; stroke-dasharray: 1.5,2.475; stroke-dashoffset: 0; stroke: #440154; stroke-width: 1.5"/>
    </g>
    <g id="line2d_65">
     <path d="M 370.145455 457.149425 
L 372.195041 458.169694 
L 374.244628 458.981775 
L 376.294215 459.585668 
L 378.343802 459.981372 
L 380.393388 460.168887 
L 382.442975 460.148214 
L 384.492562 459.919353 
L 386.542149 459.482303 
L 388.591736 458.837064 
L 390.641322 457.983637 
L 392.690909 456.922022 
L 394.740496 455.652218 
L 396.790083 454.174226 
L 398.839669 452.488045 
L 400.889256 450.593675 
L 402.938843 448.491117 
L 404.98843 446.180371 
L 407.038017 443.661436 
L 409.087603 440.934313 
L 411.13719 437.997998 
L 413.186777 434.819395 
L 415.236364 431.382458 
L 417.28595 427.687185 
L 419.335537 423.733577 
L 421.385124 419.521634 
L 423.434711 415.051356 
L 425.484298 410.322743 
L 427.533884 405.335796 
L 429.583471 400.090513 
L 431.633058 394.586895 
L 433.682645 388.824942 
L 435.732231 382.804654 
L 437.781818 376.526031 
L 439.831405 369.989073 
L 441.880992 363.19378 
L 443.930579 356.140153 
L 445.980165 348.82819 
L 448.029752 341.257892 
L 450.079339 333.429259 
L 452.128926 325.429114 
L 454.178512 318.060564 
L 456.228099 311.51896 
L 458.277686 305.804302 
L 460.327273 300.91659 
L 462.37686 296.855825 
L 464.426446 293.622005 
L 466.476033 291.215131 
L 468.52562 289.635204 
L 470.575207 288.882223 
L 472.624793 288.956187 
L 474.67438 289.857098 
L 476.723967 291.584955 
L 478.773554 294.139758 
L 480.82314 297.521507 
L 482.872727 301.730202 
L 484.922314 306.765843 
L 486.971901 312.62843 
L 489.021488 319.317964 
L 491.071074 326.834443 
L 493.120661 334.978205 
L 495.170248 342.92841 
L 497.219835 350.596319 
L 499.269421 357.981933 
L 501.319008 365.08525 
L 503.368595 371.906271 
L 505.418182 378.444996 
L 507.467769 384.701426 
L 509.517355 390.675559 
L 511.566942 396.367396 
L 513.616529 401.776938 
L 515.666116 406.904183 
L 517.715702 411.749132 
L 519.765289 416.311786 
L 521.814876 420.592143 
L 523.864463 424.590205 
L 525.91405 428.30597 
L 527.963636 431.739439 
L 530.013223 434.890613 
L 532.06281 437.75949 
L 534.112397 440.379842 
L 536.161983 442.821318 
L 538.21157 445.086031 
L 540.261157 447.173979 
L 542.310744 449.085163 
L 544.360331 450.819583 
L 546.409917 452.377238 
L 548.459504 453.758129 
L 550.509091 454.962256 
L 552.558678 455.989619 
L 554.608264 456.840217 
L 556.657851 457.514051 
L 558.707438 458.011121 
L 560.757025 458.331427 
L 562.806612 458.474968 
L 564.856198 458.441746 
L 566.905785 458.231758 
L 568.955372 457.845007 
L 571.004959 457.281491 
L 573.054545 456.541211 
" clip-path="url(#paa54dd309c)" style="fill: none; stroke-dasharray: 5.55,2.4; stroke-dashoffset: 0; stroke: #21918c; stroke-width: 1.5"/>
    </g>
    <g id="line2d_66">
     <path d="M 370.145455 473.519701 
L 372.195041 457.929704 
L 374.244628 443.213082 
L 376.294215 429.369834 
L 378.343802 416.399962 
L 380.393388 404.303463 
L 382.442975 393.08034 
L 384.492562 382.730591 
L 386.542149 373.254217 
L 388.591736 364.651218 
L 390.641322 356.921594 
L 392.690909 350.065344 
L 394.740496 344.082469 
L 396.790083 338.972968 
L 398.839669 334.736843 
L 400.889256 331.374092 
L 402.938843 328.884716 
L 404.98843 327.268714 
L 407.038017 326.526088 
L 409.087603 326.656835 
L 411.13719 327.640862 
L 413.186777 328.815001 
L 415.236364 329.857717 
L 417.28595 330.769011 
L 419.335537 331.548881 
L 421.385124 332.197328 
L 423.434711 332.714353 
L 425.484298 333.099954 
L 427.533884 333.354133 
L 429.583471 333.476888 
L 431.633058 333.468221 
L 433.682645 333.328131 
L 435.732231 333.056618 
L 437.781818 332.653682 
L 439.831405 332.119323 
L 441.880992 331.453541 
L 443.930579 330.656336 
L 445.980165 329.727708 
L 448.029752 328.667657 
L 450.079339 327.476184 
L 452.128926 326.170235 
L 454.178512 324.906582 
L 456.228099 323.723358 
L 458.277686 322.620562 
L 460.327273 321.598195 
L 462.37686 320.656256 
L 464.426446 319.794746 
L 466.476033 319.013665 
L 468.52562 318.313012 
L 470.575207 317.692788 
L 472.624793 317.152992 
L 474.67438 316.693625 
L 476.723967 316.314687 
L 478.773554 316.016177 
L 480.82314 315.798096 
L 482.872727 315.660444 
L 484.922314 315.60322 
L 486.971901 315.626425 
L 489.021488 315.730058 
L 491.071074 315.91412 
L 493.120661 316.157136 
L 495.170248 316.370818 
L 497.219835 316.545624 
L 499.269421 316.681552 
L 501.319008 316.778602 
L 503.368595 316.836775 
L 505.418182 316.856071 
L 507.467769 316.836489 
L 509.517355 316.77803 
L 511.566942 316.680694 
L 513.616529 316.54448 
L 515.666116 316.369389 
L 517.715702 316.155421 
L 519.765289 315.902575 
L 521.814876 315.610851 
L 523.864463 315.280251 
L 525.91405 314.910773 
L 527.963636 314.502417 
L 530.013223 314.055185 
L 532.06281 313.569074 
L 534.112397 313.066268 
L 536.161983 312.592513 
L 538.21157 312.149197 
L 540.261157 311.73632 
L 542.310744 311.35388 
L 544.360331 311.001879 
L 546.409917 310.680317 
L 548.459504 310.389193 
L 550.509091 310.128507 
L 552.558678 309.898259 
L 554.608264 309.69845 
L 556.657851 309.52908 
L 558.707438 309.390147 
L 560.757025 309.281653 
L 562.806612 309.203598 
L 564.856198 309.155981 
L 566.905785 309.138802 
L 568.955372 309.152061 
L 571.004959 309.195759 
L 573.054545 309.269896 
" clip-path="url(#paa54dd309c)" style="fill: none; stroke: #fde725; stroke-width: 1.5; stroke-linecap: square"/>
    </g>
    <g id="patch_22">
     <path d="M 360 477.6 
L 360 292.8 
" style="fill: none; stroke: #000000; stroke-width: 0.8; stroke-linejoin: miter; stroke-linecap: square"/>
    </g>
    <g id="patch_23">
     <path d="M 583.2 477.6 
L 583.2 292.8 
" style="fill: none; stroke: #000000; stroke-width: 0.8; stroke-linejoin: miter; stroke-linecap: square"/>
    </g>
    <g id="patch_24">
     <path d="M 360 477.6 
L 583.2 477.6 
" style="fill: none; stroke: #000000; stroke-width: 0.8; stroke-linejoin: miter; stroke-linecap: square"/>
    </g>
    <g id="patch_25">
     <path d="M 360 292.8 
L 583.2 292.8 
" style="fill: none; stroke: #000000; stroke-width: 0.8; stroke-linejoin: miter; stroke-linecap: square"/>
    </g>
    <g id="legend_3">
     <g id="patch_26">
      <path d="M 508.351563 408.717187 
L 576.2 408.717187 
Q 578.2 408.717187 578.2 406.717187 
L 578.2 363.682812 
Q 578.2 361.682812 576.2 361.682812 
L 508.351563 361.682812 
Q 506.351563 361.682812 506.351563 363.682812 
L 506.351563 406.717187 
Q 506.351563 408.717187 508.351563 408.717187 
z
" style="fill: #ffffff; opacity: 0.8; stroke: #cccccc; stroke-linejoin: miter"/>
     </g>
     <g id="line2d_67">
      <path d="M 510.351563 369.78125 
L 520.351562 369.78125 
L 530.351562 369.78125 
" style="fill: none; stroke-dasharray: 1.5,2.475; stroke-dashoffset: 0; stroke: #440154; stroke-width: 1.5"/>
     </g>
     <g id="text_64">
      <!-- Class 1 -->
      <g transform="translate(538.351562 373.28125) scale(0.1 -0.1)">
       <use xlink:href="#DejaVuSans-43"/>
       <use xlink:href="#DejaVuSans-6c" x="69.824219"/>
       <use xlink:href="#DejaVuSans-61" x="97.607422"/>
       <use xlink:href="#DejaVuSans-73" x="158.886719"/>
       <use xlink:href="#DejaVuSans-73" x="210.986328"/>
       <use xlink:href="#DejaVuSans-20" x="263.085938"/>
       <use xlink:href="#DejaVuSans-31" x="294.873047"/>
      </g>
     </g>
     <g id="line2d_68">
      <path d="M 510.351563 384.459375 
L 520.351562 384.459375 
L 530.351562 384.459375 
" style="fill: none; stroke-dasharray: 5.55,2.4; stroke-dashoffset: 0; stroke: #21918c; stroke-width: 1.5"/>
     </g>
     <g id="text_65">
      <!-- Class 2 -->
      <g transform="translate(538.351562 387.959375) scale(0.1 -0.1)">
       <use xlink:href="#DejaVuSans-43"/>
       <use xlink:href="#DejaVuSans-6c" x="69.824219"/>
       <use xlink:href="#DejaVuSans-61" x="97.607422"/>
       <use xlink:href="#DejaVuSans-73" x="158.886719"/>
       <use xlink:href="#DejaVuSans-73" x="210.986328"/>
       <use xlink:href="#DejaVuSans-20" x="263.085938"/>
       <use xlink:href="#DejaVuSans-32" x="294.873047"/>
      </g>
     </g>
     <g id="line2d_69">
      <path d="M 510.351563 399.1375 
L 520.351562 399.1375 
L 530.351562 399.1375 
" style="fill: none; stroke: #fde725; stroke-width: 1.5; stroke-linecap: square"/>
     </g>
     <g id="text_66">
      <!-- Class 3 -->
      <g transform="translate(538.351562 402.6375) scale(0.1 -0.1)">
       <use xlink:href="#DejaVuSans-43"/>
       <use xlink:href="#DejaVuSans-6c" x="69.824219"/>
       <use xlink:href="#DejaVuSans-61" x="97.607422"/>
       <use xlink:href="#DejaVuSans-73" x="158.886719"/>
       <use xlink:href="#DejaVuSans-73" x="210.986328"/>
       <use xlink:href="#DejaVuSans-20" x="263.085938"/>
       <use xlink:href="#DejaVuSans-33" x="294.873047"/>
      </g>
     </g>
    </g>
   </g>
   <g id="text_67">
    <!-- Estimated Functionals -->
    <g transform="translate(257.795625 277.918125) scale(0.12 -0.12)">
     <defs>
      <path id="DejaVuSans-45" d="M 628 4666 
L 3578 4666 
L 3578 4134 
L 1259 4134 
L 1259 2753 
L 3481 2753 
L 3481 2222 
L 1259 2222 
L 1259 531 
L 3634 531 
L 3634 0 
L 628 0 
L 628 4666 
z
" transform="scale(0.015625)"/>
      <path id="DejaVuSans-64" d="M 2906 2969 
L 2906 4863 
L 3481 4863 
L 3481 0 
L 2906 0 
L 2906 525 
Q 2725 213 2448 61 
Q 2172 -91 1784 -91 
Q 1150 -91 751 415 
Q 353 922 353 1747 
Q 353 2572 751 3078 
Q 1150 3584 1784 3584 
Q 2172 3584 2448 3432 
Q 2725 3281 2906 2969 
z
M 947 1747 
Q 947 1113 1208 752 
Q 1469 391 1925 391 
Q 2381 391 2643 752 
Q 2906 1113 2906 1747 
Q 2906 2381 2643 2742 
Q 2381 3103 1925 3103 
Q 1469 3103 1208 2742 
Q 947 2381 947 1747 
z
" transform="scale(0.015625)"/>
     </defs>
     <use xlink:href="#DejaVuSans-45"/>
     <use xlink:href="#DejaVuSans-73" x="63.183594"/>
     <use xlink:href="#DejaVuSans-74" x="115.283203"/>
     <use xlink:href="#DejaVuSans-69" x="154.492188"/>
     <use xlink:href="#DejaVuSans-6d" x="182.275391"/>
     <use xlink:href="#DejaVuSans-61" x="279.6875"/>
     <use xlink:href="#DejaVuSans-74" x="340.966797"/>
     <use xlink:href="#DejaVuSans-65" x="380.175781"/>
     <use xlink:href="#DejaVuSans-64" x="441.699219"/>
     <use xlink:href="#DejaVuSans-20" x="505.175781"/>
     <use xlink:href="#DejaVuSans-46" x="536.962891"/>
     <use xlink:href="#DejaVuSans-75" x="588.982422"/>
     <use xlink:href="#DejaVuSans-6e" x="652.361328"/>
     <use xlink:href="#DejaVuSans-63" x="715.740234"/>
     <use xlink:href="#DejaVuSans-74" x="770.720703"/>
     <use xlink:href="#DejaVuSans-69" x="809.929688"/>
     <use xlink:href="#DejaVuSans-6f" x="837.712891"/>
     <use xlink:href="#DejaVuSans-6e" x="898.894531"/>
     <use xlink:href="#DejaVuSans-61" x="962.273438"/>
     <use xlink:href="#DejaVuSans-6c" x="1023.552734"/>
     <use xlink:href="#DejaVuSans-73" x="1051.335938"/>
    </g>
   </g>
  </g>
 </g>
 <defs>
  <clipPath id="p7049650c96">
   <rect x="81" y="28.8" width="223.2" height="184.8"/>
  </clipPath>
  <clipPath id="pcde71d86a3">
   <rect x="360" y="28.8" width="223.2" height="184.8"/>
  </clipPath>
  <clipPath id="p98c4e993f7">
   <rect x="81" y="292.8" width="223.2" height="184.8"/>
  </clipPath>
  <clipPath id="paa54dd309c">
   <rect x="360" y="292.8" width="223.2" height="184.8"/>
  </clipPath>
 </defs>
</svg>
